# Blender v2.93.8 OBJ File: 'Bottle1.blend'
# www.blender.org
mtllib Bottle1.mtl
o Bottle1_Cylinder.001
v 0.000000 -0.361255 -0.058465
v 0.041341 -0.361255 -0.041341
v 0.058465 -0.361255 0.000000
v 0.041341 -0.361255 0.041341
v 0.000000 -0.361255 0.058465
v -0.041341 -0.361255 0.041341
v -0.058465 -0.361255 -0.000000
v -0.041341 -0.361255 -0.041341
v 0.053908 -0.294431 -0.053908
v 0.000000 -0.294431 -0.076237
v 0.076238 -0.294431 0.000000
v 0.053908 -0.294431 0.053908
v 0.000000 -0.294431 0.076237
v -0.053908 -0.294431 0.053908
v -0.076237 -0.294431 -0.000000
v -0.053908 -0.294431 -0.053908
v 0.038229 -0.057881 -0.038229
v 0.000000 -0.057881 -0.054064
v 0.054064 -0.057881 0.000000
v 0.038229 -0.057881 0.038229
v 0.000000 -0.057881 0.054064
v -0.038229 -0.057881 0.038229
v -0.054064 -0.057881 -0.000000
v -0.038229 -0.057881 -0.038229
v -0.055788 -0.176156 0.055789
v -0.078897 -0.176156 -0.000000
v 0.055789 -0.176156 0.055789
v 0.000000 -0.176156 0.078897
v 0.055789 -0.176156 -0.055789
v 0.078897 -0.176156 0.000000
v -0.055788 -0.176156 -0.055789
v 0.000000 -0.176156 -0.078897
v 0.015125 0.081977 -0.015125
v -0.000000 0.081977 -0.021390
v 0.021390 0.081977 0.000000
v 0.015125 0.081977 0.015125
v -0.000000 0.081977 0.021390
v -0.015125 0.081977 0.015125
v -0.021390 0.081977 -0.000000
v -0.015125 0.081977 -0.015125
v 0.012808 0.138956 -0.012809
v -0.000000 0.138956 -0.018114
v 0.018114 0.138956 0.000000
v 0.012808 0.138956 0.012809
v -0.000000 0.138956 0.018114
v -0.012809 0.138956 0.012809
v -0.018114 0.138956 -0.000000
v -0.012809 0.138956 -0.012809
v 0.015125 0.130857 -0.015125
v 0.021390 0.130857 0.000000
v -0.021390 0.130857 -0.000000
v -0.015125 0.130857 -0.015125
v -0.000000 0.130857 0.021390
v -0.015125 0.130857 0.015125
v 0.015125 0.130857 0.015125
v -0.000000 0.130857 -0.021390
v 0.019494 0.138956 -0.019494
v -0.000000 0.138956 -0.027569
v 0.027569 0.138956 0.000000
v 0.019494 0.138956 0.019494
v -0.000000 0.138956 0.027569
v -0.019494 0.138956 0.019494
v -0.027569 0.138956 -0.000000
v -0.019494 0.138956 -0.019494
v 0.019494 0.130857 -0.019494
v -0.027569 0.130857 -0.000000
v -0.000000 0.130857 0.027569
v -0.000000 0.130857 -0.027569
v 0.027569 0.130857 0.000000
v -0.019494 0.130857 -0.019494
v -0.019494 0.130857 0.019494
v 0.019494 0.130857 0.019494
v 0.015125 0.138956 -0.015125
v -0.000000 0.138956 -0.021390
v 0.021390 0.138956 0.000000
v 0.015125 0.138956 0.015125
v -0.000000 0.138956 0.021390
v -0.015125 0.138956 0.015125
v -0.021390 0.138956 -0.000000
v -0.015125 0.138956 -0.015125
v 0.012808 0.129162 -0.012809
v -0.000000 0.129162 -0.018114
v 0.018114 0.129162 0.000000
v 0.012808 0.129162 0.012809
v -0.000000 0.129162 0.018114
v -0.012809 0.129162 0.012809
v -0.018114 0.129162 -0.000000
v -0.012809 0.129162 -0.012809
vt 0.875000 1.000000
vt 0.750000 0.500000
vt 0.875000 0.500000
vt 0.750000 1.000000
vt 0.625000 0.500000
vt 0.500000 1.000000
vt 0.500000 0.500000
vt 0.375000 1.000000
vt 0.375000 0.500000
vt 0.250000 0.500000
vt 0.250000 1.000000
vt 0.125000 0.500000
vt 0.125000 1.000000
vt 0.000000 0.500000
vt 0.919706 0.080294
vt 0.580294 0.080294
vt 0.580294 0.419706
vt 0.375000 1.000000
vt 0.250000 1.000000
vt 0.250000 1.000000
vt 1.000000 1.000000
vt 0.875000 1.000000
vt 0.875000 1.000000
vt 0.625000 1.000000
vt 0.500000 1.000000
vt 0.500000 1.000000
vt 0.875000 1.000000
vt 0.750000 1.000000
vt 0.750000 1.000000
vt 0.125000 1.000000
vt 0.125000 1.000000
vt 0.375000 1.000000
vt 0.625000 1.000000
vt 1.000000 1.000000
vt 0.000000 1.000000
vt 0.000000 1.000000
vt 0.000000 1.000000
vt 1.000000 1.000000
vt 0.625000 1.000000
vt 0.080294 0.080294
vt 0.250000 0.010000
vt 0.250000 0.010000
vt 0.000000 1.000000
vt 0.250000 1.000000
vt 0.625000 1.000000
vt 0.500000 1.000000
vt 0.750000 1.000000
vt 0.125000 1.000000
vt 0.375000 1.000000
vt 0.046756 0.250000
vt 0.106285 0.393715
vt 0.106285 0.393715
vt 0.125000 1.000000
vt 0.000000 1.000000
vt 0.000000 1.000000
vt 0.419706 0.080294
vt 0.419706 0.080294
vt 0.375000 1.000000
vt 0.250000 1.000000
vt 0.250000 1.000000
vt 0.490000 0.250000
vt 0.490000 0.250000
vt 0.625000 1.000000
vt 0.500000 1.000000
vt 0.500000 1.000000
vt 0.875000 1.000000
vt 0.750000 1.000000
vt 0.750000 1.000000
vt 0.419706 0.419706
vt 0.419706 0.419706
vt 1.000000 1.000000
vt 0.875000 1.000000
vt 0.750000 1.000000
vt 0.125000 1.000000
vt 0.125000 1.000000
vt 0.375000 1.000000
vt 0.375000 1.000000
vt 0.625000 1.000000
vt 0.625000 1.000000
vt 1.000000 1.000000
vt 0.875000 1.000000
vt 0.000000 1.000000
vt 0.250000 1.000000
vt 0.500000 1.000000
vt 1.000000 1.000000
vt 0.010000 0.250000
vt 0.080294 0.080294
vt 0.080294 0.419706
vt 0.010000 0.250000
vt 0.250000 0.490000
vt 0.080294 0.419706
vt 0.250000 0.490000
vt 0.393715 0.393715
vt 0.250000 0.453244
vt 0.453244 0.250000
vt 0.250000 0.046756
vt 0.393715 0.106285
vt 0.106285 0.106285
vt 0.453244 0.250000
vt 0.250000 0.453244
vt 0.046756 0.250000
vt 0.106285 0.106285
vt 0.393715 0.106285
vt 0.393715 0.393715
vt 0.250000 0.046756
vt 1.000000 0.500000
vt 0.750000 0.490000
vt 0.919706 0.419706
vt 0.990000 0.250000
vt 0.750000 0.010000
vt 0.510000 0.250000
vt 1.000000 1.000000
vn 0.8972 -0.2386 -0.3716
vn 0.8972 -0.2386 0.3716
vn 0.3716 -0.2386 0.8972
vn -0.3716 -0.2386 0.8972
vn -0.8972 -0.2386 0.3716
vn -0.8972 -0.2386 -0.3716
vn -0.3716 -0.2386 -0.8972
vn 0.0000 -1.0000 0.0000
vn -0.9070 0.1904 0.3757
vn 0.3741 0.2110 -0.9031
vn 0.3757 0.1904 0.9070
vn 0.9070 0.1904 -0.3757
vn -0.9070 0.1904 -0.3757
vn -0.3757 0.1904 0.9070
vn 0.9070 0.1904 0.3757
vn 0.3757 0.1904 -0.9070
vn -0.3757 0.1904 -0.9070
vn -0.3826 -0.0208 -0.9237
vn 0.3826 -0.0208 -0.9237
vn 0.9237 -0.0208 0.3826
vn -0.3826 -0.0208 0.9237
vn -0.9237 -0.0208 -0.3826
vn 0.9237 -0.0208 -0.3826
vn 0.3826 -0.0208 0.9237
vn -0.9237 -0.0208 0.3826
vn 0.0000 1.0000 0.0000
vn -0.3741 0.2110 -0.9031
vn -0.9031 0.2110 0.3741
vn 0.3741 0.2110 0.9031
vn 0.9031 0.2110 -0.3741
vn -0.9031 0.2110 -0.3741
vn -0.3741 0.2110 0.9031
vn 0.9031 0.2110 0.3741
vn 0.9239 0.0000 0.3827
vn 0.3827 0.0000 0.9239
vn -0.9239 0.0000 0.3827
vn -0.3827 0.0000 -0.9239
vn 0.3827 0.0000 -0.9239
vn -0.3827 0.0000 0.9239
vn -0.9239 0.0000 -0.3827
vn 0.9239 0.0000 -0.3827
vn 0.3716 -0.2386 -0.8972
usemtl Bottle1
s off
f 9/1/1 3/2/1 2/3/1
f 11/4/2 4/5/2 3/2/2
f 4/5/3 13/6/3 5/7/3
f 5/7/4 14/8/4 6/9/4
f 14/8/5 7/10/5 6/9/5
f 15/11/6 8/12/6 7/10/6
f 16/13/7 1/14/7 8/12/7
f 4/15/8 6/16/8 8/17/8
f 25/18/9 23/19/9 26/20/9
f 18/21/10 33/22/10 17/23/10
f 27/24/11 21/25/11 28/26/11
f 29/27/12 19/28/12 30/29/12
f 26/20/13 24/30/13 31/31/13
f 25/18/14 21/25/14 22/32/14
f 30/29/15 20/33/15 27/24/15
f 32/34/16 17/23/16 29/27/16
f 31/31/17 18/35/17 32/36/17
f 10/37/18 31/31/18 32/36/18
f 10/38/19 29/27/19 9/1/19
f 11/4/20 27/24/20 12/39/20
f 13/6/21 25/18/21 14/8/21
f 15/11/22 31/31/22 16/13/22
f 9/1/23 30/29/23 11/4/23
f 12/39/24 28/26/24 13/6/24
f 15/11/25 25/18/25 26/20/25
f 78/40/26 61/41/26 77/42/26
f 24/30/27 34/43/27 18/35/27
f 22/32/28 39/44/28 23/19/28
f 21/25/29 36/45/29 37/46/29
f 17/23/30 35/47/30 19/28/30
f 23/19/31 40/48/31 24/30/31
f 22/32/32 37/46/32 38/49/32
f 19/28/33 36/45/33 20/33/33
f 47/50/34 88/51/34 48/52/34
f 52/53/8 68/54/8 56/55/8
f 76/56/26 61/41/26 60/57/26
f 54/58/8 66/59/8 51/60/8
f 76/56/26 59/61/26 75/62/26
f 55/63/8 67/64/8 53/65/8
f 49/66/8 69/67/8 50/68/8
f 75/62/26 57/69/26 73/70/26
f 36/45/35 53/65/35 37/46/35
f 38/49/36 51/60/36 39/44/36
f 40/48/37 56/55/37 34/43/37
f 34/71/38 49/66/38 33/22/38
f 35/47/34 55/63/34 36/45/34
f 37/46/39 54/58/39 38/49/39
f 39/44/40 52/53/40 40/48/40
f 33/22/41 50/68/41 35/47/41
f 65/72/41 59/73/41 69/67/41
f 66/59/40 64/74/40 70/75/40
f 67/64/39 62/76/39 71/77/39
f 69/67/34 60/78/34 72/79/34
f 68/80/38 57/81/38 65/72/38
f 70/75/37 58/82/37 68/54/37
f 71/77/36 63/83/36 66/59/36
f 72/79/35 61/84/35 67/64/35
f 56/85/8 65/72/8 49/66/8
f 79/86/26 62/87/26 78/40/26
f 50/68/8 72/79/8 55/63/8
f 80/88/26 63/89/26 79/86/26
f 53/65/8 71/77/8 54/58/8
f 80/88/26 58/90/26 64/91/26
f 74/92/26 57/69/26 58/90/26
f 52/53/8 66/59/8 70/75/8
f 41/93/26 74/92/26 42/94/26
f 43/95/26 73/70/26 41/93/26
f 43/95/26 76/56/26 75/62/26
f 45/96/26 76/56/26 44/97/26
f 45/96/26 78/40/26 77/42/26
f 46/98/26 79/86/26 78/40/26
f 48/52/26 79/86/26 47/50/26
f 48/52/26 74/92/26 80/88/26
f 83/99/26 82/100/26 87/101/26
f 45/96/38 86/102/38 46/98/38
f 43/95/40 84/103/40 44/97/40
f 42/94/39 81/104/39 41/93/39
f 48/52/35 82/100/35 42/94/35
f 46/98/41 87/101/41 47/50/41
f 44/97/37 85/105/37 45/96/37
f 41/93/36 83/99/36 43/95/36
f 10/38/42 2/3/42 1/106/42
f 9/1/1 11/4/1 3/2/1
f 11/4/2 12/39/2 4/5/2
f 4/5/3 12/39/3 13/6/3
f 5/7/4 13/6/4 14/8/4
f 14/8/5 15/11/5 7/10/5
f 15/11/6 16/13/6 8/12/6
f 16/13/7 10/37/7 1/14/7
f 8/17/8 1/107/8 2/108/8
f 2/108/8 3/109/8 4/15/8
f 4/15/8 5/110/8 6/16/8
f 6/16/8 7/111/8 8/17/8
f 8/17/8 2/108/8 4/15/8
f 25/18/9 22/32/9 23/19/9
f 18/21/10 34/71/10 33/22/10
f 27/24/11 20/33/11 21/25/11
f 29/27/12 17/23/12 19/28/12
f 26/20/13 23/19/13 24/30/13
f 25/18/14 28/26/14 21/25/14
f 30/29/15 19/28/15 20/33/15
f 32/34/16 18/21/16 17/23/16
f 31/31/17 24/30/17 18/35/17
f 10/37/18 16/13/18 31/31/18
f 10/38/19 32/34/19 29/27/19
f 11/4/20 30/29/20 27/24/20
f 13/6/21 28/26/21 25/18/21
f 15/11/22 26/20/22 31/31/22
f 9/1/23 29/27/23 30/29/23
f 12/39/24 27/24/24 28/26/24
f 15/11/25 14/8/25 25/18/25
f 78/40/26 62/87/26 61/41/26
f 24/30/27 40/48/27 34/43/27
f 22/32/28 38/49/28 39/44/28
f 21/25/29 20/33/29 36/45/29
f 17/23/30 33/22/30 35/47/30
f 23/19/31 39/44/31 40/48/31
f 22/32/32 21/25/32 37/46/32
f 19/28/33 35/47/33 36/45/33
f 47/50/34 87/101/34 88/51/34
f 52/53/8 70/75/8 68/54/8
f 76/56/26 77/42/26 61/41/26
f 54/58/8 71/77/8 66/59/8
f 76/56/26 60/57/26 59/61/26
f 55/63/8 72/79/8 67/64/8
f 49/66/8 65/72/8 69/67/8
f 75/62/26 59/61/26 57/69/26
f 36/45/35 55/63/35 53/65/35
f 38/49/36 54/58/36 51/60/36
f 40/48/37 52/53/37 56/55/37
f 34/71/38 56/85/38 49/66/38
f 35/47/34 50/68/34 55/63/34
f 37/46/39 53/65/39 54/58/39
f 39/44/40 51/60/40 52/53/40
f 33/22/41 49/66/41 50/68/41
f 65/72/41 57/81/41 59/73/41
f 66/59/40 63/83/40 64/74/40
f 67/64/39 61/84/39 62/76/39
f 69/67/34 59/73/34 60/78/34
f 68/80/38 58/112/38 57/81/38
f 70/75/37 64/74/37 58/82/37
f 71/77/36 62/76/36 63/83/36
f 72/79/35 60/78/35 61/84/35
f 56/85/8 68/80/8 65/72/8
f 79/86/26 63/89/26 62/87/26
f 50/68/8 69/67/8 72/79/8
f 80/88/26 64/91/26 63/89/26
f 53/65/8 67/64/8 71/77/8
f 80/88/26 74/92/26 58/90/26
f 74/92/26 73/70/26 57/69/26
f 52/53/8 51/60/8 66/59/8
f 41/93/26 73/70/26 74/92/26
f 43/95/26 75/62/26 73/70/26
f 43/95/26 44/97/26 76/56/26
f 45/96/26 77/42/26 76/56/26
f 45/96/26 46/98/26 78/40/26
f 46/98/26 47/50/26 79/86/26
f 48/52/26 80/88/26 79/86/26
f 48/52/26 42/94/26 74/92/26
f 83/99/26 81/104/26 82/100/26
f 82/100/26 88/51/26 87/101/26
f 87/101/26 86/102/26 85/105/26
f 85/105/26 84/103/26 87/101/26
f 84/103/26 83/99/26 87/101/26
f 45/96/38 85/105/38 86/102/38
f 43/95/40 83/99/40 84/103/40
f 42/94/39 82/100/39 81/104/39
f 48/52/35 88/51/35 82/100/35
f 46/98/41 86/102/41 87/101/41
f 44/97/37 84/103/37 85/105/37
f 41/93/36 81/104/36 83/99/36
f 10/38/42 9/1/42 2/3/42
