# Blender v2.93.8 OBJ File: 'Candle1.blend'
# www.blender.org
mtllib Candle1.mtl
o Candle1_Cube.030
v -0.000001 -0.111246 -0.050332
v -0.000001 0.120219 -0.050332
v 0.035590 -0.111246 -0.035590
v 0.035590 0.107518 -0.035590
v 0.050332 -0.111246 0.000000
v 0.050332 0.123632 0.000000
v 0.035590 -0.111246 0.035590
v 0.035590 0.084926 0.035590
v -0.000001 -0.111246 0.050332
v -0.000001 0.108580 0.050332
v -0.035591 -0.111246 0.035590
v -0.035591 0.096001 0.035590
v -0.050333 -0.111246 0.000000
v -0.050333 0.123024 0.000000
v -0.035591 -0.111246 -0.035590
v -0.035591 0.107518 -0.035590
v 0.004488 0.086283 -0.004489
v -0.000001 0.086283 -0.006349
v -0.004490 0.086283 -0.004489
v -0.006349 0.086283 -0.000000
v -0.004490 0.086283 0.004489
v -0.000001 0.086283 0.006348
v 0.004488 0.086283 0.004489
v 0.006347 0.086283 -0.000000
v 0.004488 0.095941 -0.004489
v -0.000001 0.095941 -0.006349
v 0.006347 0.095941 -0.000000
v -0.004490 0.095941 -0.004489
v -0.006349 0.095941 -0.000000
v -0.004490 0.095941 0.004489
v -0.000001 0.095941 0.006348
v 0.004488 0.095941 0.004489
vt 1.000000 0.500000
vt 0.875000 1.000000
vt 0.875000 0.500000
vt 0.750000 0.500000
vt 0.625000 1.000000
vt 0.625000 0.500000
vt 0.500000 0.500000
vt 0.375000 1.000000
vt 0.375000 0.500000
vt 0.250000 0.500000
vt 0.125000 1.000000
vt 0.125000 0.500000
vt 0.000000 0.500000
vt 0.580294 0.419706
vt 0.919706 0.419706
vt 0.919706 0.080294
vt 0.419706 0.419706
vt 0.250000 0.337387
vt 0.311792 0.311792
vt 0.080294 0.419706
vt 0.250000 0.490000
vt 0.162613 0.250000
vt 0.188208 0.311792
vt 0.080294 0.080294
vt 0.010000 0.250000
vt 0.250000 0.162613
vt 0.188208 0.188208
vt 0.419706 0.080294
vt 0.250000 0.010000
vt 0.337387 0.250000
vt 0.311792 0.188208
vt 0.490000 0.250000
vt 1.000000 1.000000
vt 0.750000 1.000000
vt 0.500000 1.000000
vt 0.250000 1.000000
vt 0.000000 1.000000
vt 0.750000 0.490000
vt 0.990000 0.250000
vt 0.750000 0.010000
vt 0.580294 0.080294
vt 0.510000 0.250000
vt 0.188208 0.311792
vt 0.311792 0.188208
vt 0.337387 0.250000
vt 0.162613 0.250000
vt 0.250000 0.162613
vt 0.250000 0.337387
vt 0.311792 0.311792
vt 0.188208 0.188208
vn 0.3827 0.0000 -0.9239
vn 0.9239 0.0000 -0.3827
vn 0.9239 0.0000 0.3827
vn 0.3827 0.0000 0.9239
vn -0.3827 0.0000 0.9239
vn -0.9239 0.0000 0.3827
vn -0.9239 0.0000 -0.3827
vn -0.3827 0.0000 -0.9239
vn 0.0000 -1.0000 0.0000
vn -0.1772 0.8863 0.4279
vn -0.0295 0.7914 0.6106
vn 0.4279 0.8863 0.1772
vn 0.6111 0.7316 0.3023
vn 0.0890 0.9726 -0.2149
vn 0.3758 0.8266 -0.4190
vn 0.0308 0.9994 0.0128
vn -0.6454 0.7600 -0.0768
vn 0.0295 0.7914 0.6106
vn 0.1772 0.8863 0.4279
vn 0.6396 0.7657 -0.0686
vn 0.2149 0.9726 -0.0890
vn -0.1269 0.8847 -0.4485
vn 0.0128 0.9994 0.0308
vn -0.5645 0.6648 0.4892
vn -0.4279 0.8863 0.1772
vn 0.0000 1.0000 0.0000
usemtl Candle1
s off
f 1/1/1 4/2/1 3/3/1
f 4/2/2 5/4/2 3/3/2
f 5/4/3 8/5/3 7/6/3
f 8/5/4 9/7/4 7/6/4
f 9/7/5 12/8/5 11/9/5
f 12/8/6 13/10/6 11/9/6
f 13/10/7 16/11/7 15/12/7
f 16/11/8 1/13/8 15/12/8
f 15/14/9 3/15/9 7/16/9
f 4/17/10 18/18/10 17/19/10
f 16/20/11 18/18/11 2/21/11
f 16/20/12 20/22/12 19/23/12
f 12/24/13 20/22/13 14/25/13
f 12/24/14 22/26/14 21/27/14
f 8/28/15 22/26/15 10/29/15
f 8/28/16 24/30/16 23/31/16
f 4/17/17 24/30/17 6/32/17
f 1/1/1 2/33/1 4/2/1
f 4/2/2 6/34/2 5/4/2
f 5/4/3 6/34/3 8/5/3
f 8/5/4 10/35/4 9/7/4
f 9/7/5 10/35/5 12/8/5
f 12/8/6 14/36/6 13/10/6
f 13/10/7 14/36/7 16/11/7
f 16/11/8 2/37/8 1/13/8
f 15/14/9 1/38/9 3/15/9
f 3/15/9 5/39/9 7/16/9
f 7/16/9 9/40/9 15/14/9
f 9/40/9 11/41/9 15/14/9
f 11/41/9 13/42/9 15/14/9
f 4/17/18 2/21/18 18/18/18
f 16/20/19 19/23/19 18/18/19
f 16/20/20 14/25/20 20/22/20
f 12/24/21 21/27/21 20/22/21
f 12/24/22 10/29/22 22/26/22
f 8/28/23 23/31/23 22/26/23
f 8/28/24 6/32/24 24/30/24
f 4/17/25 17/19/25 24/30/25
usemtl RopeCandle1
f 20/22/7 28/43/7 19/23/7
f 32/44/26 27/45/26 29/46/26
f 17/19/2 27/45/2 24/30/2
f 23/31/4 31/47/4 22/26/4
f 21/27/6 29/46/6 20/22/6
f 19/23/8 26/48/8 18/18/8
f 18/18/1 25/49/1 17/19/1
f 24/30/3 32/44/3 23/31/3
f 22/26/5 30/50/5 21/27/5
f 20/22/7 29/46/7 28/43/7
f 27/45/26 25/49/26 29/46/26
f 25/49/26 26/48/26 29/46/26
f 26/48/26 28/43/26 29/46/26
f 29/46/26 30/50/26 31/47/26
f 31/47/26 32/44/26 29/46/26
f 17/19/2 25/49/2 27/45/2
f 23/31/4 32/44/4 31/47/4
f 21/27/6 30/50/6 29/46/6
f 19/23/8 28/43/8 26/48/8
f 18/18/1 26/48/1 25/49/1
f 24/30/3 27/45/3 32/44/3
f 22/26/5 31/47/5 30/50/5
