# Blender v2.93.8 OBJ File: 'Cup1.blend'
# www.blender.org
mtllib Cup1.mtl
o Cup1_Cylinder.002
v 0.000000 -0.128431 -0.066643
v 0.000000 -0.113613 -0.016855
v 0.047124 -0.128431 -0.047124
v 0.011918 -0.113613 -0.011918
v 0.066643 -0.128431 0.000000
v 0.016855 -0.113613 0.000000
v 0.047124 -0.128431 0.047124
v 0.011918 -0.113613 0.011918
v 0.000000 -0.128431 0.066643
v 0.000000 -0.113613 0.016855
v -0.047124 -0.128431 0.047124
v -0.011918 -0.113613 0.011918
v -0.066643 -0.128431 0.000000
v -0.016855 -0.113613 -0.000000
v -0.047124 -0.128431 -0.047124
v -0.011918 -0.113613 -0.011918
v 0.047124 -0.113613 -0.047124
v 0.000000 -0.113613 -0.066643
v 0.066643 -0.113613 0.000000
v 0.047124 -0.113613 0.047124
v 0.000000 -0.113613 0.066643
v -0.047124 -0.113613 0.047124
v -0.066643 -0.113613 0.000000
v -0.047124 -0.113613 -0.047124
v 0.017087 -0.012975 -0.017086
v 0.000000 -0.012975 -0.024164
v 0.024164 -0.012975 0.000000
v 0.017087 -0.012975 0.017086
v 0.000000 -0.012975 0.024164
v -0.017086 -0.012975 0.017086
v -0.024163 -0.012975 -0.000000
v -0.017086 -0.012975 -0.017086
v 0.029428 -0.006681 -0.029428
v -0.000000 -0.006681 -0.041618
v 0.041618 -0.006681 0.000000
v 0.029428 -0.006681 0.029428
v -0.000000 -0.006681 0.041618
v -0.029428 -0.006681 0.029428
v -0.041618 -0.006681 -0.000000
v -0.029429 -0.006681 -0.029428
v 0.052208 0.190510 -0.052209
v -0.000000 0.190510 -0.073834
v 0.073834 0.190510 0.000000
v 0.052208 0.190510 0.052209
v -0.000000 0.190510 0.073834
v -0.052209 0.190510 0.052209
v -0.073834 0.190510 -0.000000
v -0.052209 0.190510 -0.052209
v 0.061066 0.190510 -0.061066
v -0.000000 0.190510 -0.086360
v 0.086360 0.190510 0.000000
v 0.061066 0.190510 0.061066
v -0.000000 0.190510 0.086360
v -0.061066 0.190510 0.061066
v -0.086361 0.190510 -0.000000
v -0.061066 0.190510 -0.061066
v 0.027264 -0.005706 -0.027265
v -0.000000 -0.005706 -0.038558
v 0.038558 -0.005706 0.000000
v 0.027264 -0.005706 0.027265
v -0.000000 -0.005706 0.038558
v -0.027265 -0.005706 0.027265
v -0.038558 -0.005706 -0.000000
v -0.027265 -0.005706 -0.027265
vt 1.000000 1.000000
vt 0.875000 0.500000
vt 1.000000 0.500000
vt 0.875000 1.000000
vt 0.750000 0.500000
vt 0.750000 1.000000
vt 0.625000 0.500000
vt 0.625000 1.000000
vt 0.500000 0.500000
vt 0.500000 1.000000
vt 0.375000 0.500000
vt 0.375000 1.000000
vt 0.250000 0.500000
vt 0.229662 0.270338
vt 0.221238 0.250000
vt 0.229662 0.270338
vt 0.250000 1.000000
vt 0.125000 0.500000
vt 0.125000 1.000000
vt 0.000000 0.500000
vt 0.919706 0.080294
vt 0.580294 0.080294
vt 0.580294 0.419706
vt 0.250000 0.278762
vt 0.419706 0.419706
vt 0.250000 0.490000
vt 0.270338 0.270338
vt 0.490000 0.250000
vt 0.270338 0.229662
vt 0.278762 0.250000
vt 0.250000 0.221238
vt 0.419706 0.080294
vt 0.229662 0.229662
vt 0.250000 0.010000
vt 0.221238 0.250000
vt 0.080294 0.080294
vt 0.080294 0.419706
vt 0.010000 0.250000
vt 0.229662 0.270338
vt 0.229662 0.229662
vt 0.270338 0.229662
vt 0.250000 0.278762
vt 0.270338 0.270338
vt 0.250000 0.221238
vt 0.278762 0.250000
vt 0.270338 0.229662
vt 0.250000 0.221238
vt 0.250000 0.221238
vt 0.229662 0.229662
vt 0.278762 0.250000
vt 0.270338 0.270338
vt 0.250000 0.278762
vt 0.221238 0.250000
vt 0.274590 0.250000
vt 0.267388 0.232612
vt 0.267388 0.232612
vt 0.278762 0.250000
vt 0.229662 0.270338
vt 0.229662 0.229662
vt 0.270338 0.229662
vt 0.270338 0.270338
vt 0.250000 0.278762
vt 0.221238 0.250000
vt 0.267388 0.267388
vt 0.250000 0.274590
vt 0.250000 0.225410
vt 0.225410 0.250000
vt 0.232612 0.232612
vt 0.232612 0.267388
vt 0.250000 0.274590
vt 0.225410 0.250000
vt 0.250000 0.225410
vt 0.267388 0.267388
vt 0.232612 0.267388
vt 0.274590 0.250000
vt 0.232612 0.232612
vt 0.000000 1.000000
vt 0.750000 0.490000
vt 0.919706 0.419706
vt 0.990000 0.250000
vt 0.750000 0.010000
vt 0.510000 0.250000
vn 0.3827 0.0000 -0.9239
vn 0.9239 0.0000 -0.3827
vn 0.9239 0.0000 0.3827
vn 0.3827 0.0000 0.9239
vn -0.3827 0.0000 0.9239
vn -0.9239 0.0000 0.3827
vn -0.9218 -0.0669 -0.3818
vn -0.9239 0.0000 -0.3827
vn -0.3827 0.0000 -0.9239
vn 0.0000 -1.0000 -0.0000
vn 0.0000 1.0000 0.0000
vn -0.3359 -0.9316 -0.1391
vn -0.3818 -0.0669 0.9218
vn 0.9218 -0.0669 0.3818
vn 0.3818 -0.0669 -0.9218
vn -0.3818 -0.0669 -0.9218
vn -0.9218 -0.0669 0.3818
vn 0.3818 -0.0669 0.9218
vn 0.9218 -0.0669 -0.3818
vn 0.3745 -0.2052 0.9042
vn -0.1391 -0.9316 0.3359
vn 0.3359 -0.9316 0.1391
vn 0.1391 -0.9316 -0.3359
vn -0.1391 -0.9316 -0.3359
vn -0.3359 -0.9316 0.1391
vn 0.1391 -0.9316 0.3359
vn 0.3359 -0.9316 -0.1391
vn -0.9114 0.1639 -0.3775
vn 0.9042 -0.2052 -0.3745
vn -0.9042 -0.2052 -0.3745
vn -0.3745 -0.2052 0.9042
vn 0.9042 -0.2052 0.3745
vn 0.3745 -0.2052 -0.9042
vn -0.3745 -0.2052 -0.9042
vn -0.9042 -0.2052 0.3745
vn -0.3775 0.1639 0.9114
vn 0.3775 0.1639 0.9114
vn 0.9114 0.1639 -0.3775
vn -0.3775 0.1639 -0.9114
vn -0.9114 0.1639 0.3775
vn 0.9114 0.1639 0.3775
vn 0.3775 0.1639 -0.9114
usemtl Cup1
s off
f 18/1/1 3/2/1 1/3/1
f 17/4/2 5/5/2 3/2/2
f 19/6/3 7/7/3 5/5/3
f 20/8/4 9/9/4 7/7/4
f 21/10/5 11/11/5 9/9/5
f 22/12/6 13/13/6 11/11/6
f 16/14/7 31/15/7 32/16/7
f 23/17/8 15/18/8 13/13/8
f 24/19/9 1/20/9 15/18/9
f 7/21/10 11/22/10 15/23/10
f 2/24/11 17/25/11 18/26/11
f 4/27/11 19/28/11 17/25/11
f 8/29/11 19/28/11 6/30/11
f 10/31/11 20/32/11 8/29/11
f 12/33/11 21/34/11 10/31/11
f 14/35/11 22/36/11 12/33/11
f 14/35/11 24/37/11 23/38/11
f 16/14/11 18/26/11 24/37/11
f 31/15/12 40/39/12 32/16/12
f 10/31/13 30/40/13 12/33/13
f 6/30/14 28/41/14 8/29/14
f 4/27/15 26/42/15 25/43/15
f 2/24/16 32/16/16 26/42/16
f 12/33/17 31/15/17 14/35/17
f 8/29/18 29/44/18 10/31/18
f 6/30/19 25/43/19 27/45/19
f 36/46/20 53/47/20 37/48/20
f 30/40/21 37/48/21 38/49/21
f 28/41/22 35/50/22 36/46/22
f 26/42/23 33/51/23 25/43/23
f 32/16/24 34/52/24 26/42/24
f 31/15/25 38/49/25 39/53/25
f 29/44/26 36/46/26 37/48/26
f 25/43/27 35/50/27 27/45/27
f 43/54/28 60/55/28 44/56/28
f 33/51/29 51/57/29 35/50/29
f 39/53/30 56/58/30 40/39/30
f 37/48/31 54/59/31 38/49/31
f 36/46/32 51/57/32 52/60/32
f 34/52/33 49/61/33 33/51/33
f 40/39/34 50/62/34 34/52/34
f 39/53/35 54/59/35 55/63/35
f 41/64/11 50/62/11 42/65/11
f 41/64/11 51/57/11 49/61/11
f 44/56/11 51/57/11 43/54/11
f 45/66/11 52/60/11 44/56/11
f 45/66/11 54/59/11 53/47/11
f 47/67/11 54/59/11 46/68/11
f 48/69/11 55/63/11 47/67/11
f 42/65/11 56/58/11 48/69/11
f 58/70/11 63/71/11 61/72/11
f 42/65/36 57/73/36 41/64/36
f 42/65/37 64/74/37 58/70/37
f 46/68/38 63/71/38 47/67/38
f 44/56/39 61/72/39 45/66/39
f 41/64/40 59/75/40 43/54/40
f 47/67/41 64/74/41 48/69/41
f 45/66/42 62/76/42 46/68/42
f 18/1/1 17/4/1 3/2/1
f 17/4/2 19/6/2 5/5/2
f 19/6/3 20/8/3 7/7/3
f 20/8/4 21/10/4 9/9/4
f 21/10/5 22/12/5 11/11/5
f 22/12/6 23/17/6 13/13/6
f 16/14/7 14/35/7 31/15/7
f 23/17/8 24/19/8 15/18/8
f 24/19/9 18/77/9 1/20/9
f 15/23/10 1/78/10 3/79/10
f 3/79/10 5/80/10 15/23/10
f 5/80/10 7/21/10 15/23/10
f 7/21/10 9/81/10 11/22/10
f 11/22/10 13/82/10 15/23/10
f 2/24/11 4/27/11 17/25/11
f 4/27/11 6/30/11 19/28/11
f 8/29/11 20/32/11 19/28/11
f 10/31/11 21/34/11 20/32/11
f 12/33/11 22/36/11 21/34/11
f 14/35/11 23/38/11 22/36/11
f 14/35/11 16/14/11 24/37/11
f 16/14/11 2/24/11 18/26/11
f 31/15/12 39/53/12 40/39/12
f 10/31/13 29/44/13 30/40/13
f 6/30/14 27/45/14 28/41/14
f 4/27/15 2/24/15 26/42/15
f 2/24/16 16/14/16 32/16/16
f 12/33/17 30/40/17 31/15/17
f 8/29/18 28/41/18 29/44/18
f 6/30/19 4/27/19 25/43/19
f 36/46/20 52/60/20 53/47/20
f 30/40/21 29/44/21 37/48/21
f 28/41/22 27/45/22 35/50/22
f 26/42/23 34/52/23 33/51/23
f 32/16/24 40/39/24 34/52/24
f 31/15/25 30/40/25 38/49/25
f 29/44/26 28/41/26 36/46/26
f 25/43/27 33/51/27 35/50/27
f 43/54/28 59/75/28 60/55/28
f 33/51/29 49/61/29 51/57/29
f 39/53/30 55/63/30 56/58/30
f 37/48/31 53/47/31 54/59/31
f 36/46/32 35/50/32 51/57/32
f 34/52/33 50/62/33 49/61/33
f 40/39/34 56/58/34 50/62/34
f 39/53/35 38/49/35 54/59/35
f 41/64/11 49/61/11 50/62/11
f 41/64/11 43/54/11 51/57/11
f 44/56/11 52/60/11 51/57/11
f 45/66/11 53/47/11 52/60/11
f 45/66/11 46/68/11 54/59/11
f 47/67/11 55/63/11 54/59/11
f 48/69/11 56/58/11 55/63/11
f 42/65/11 50/62/11 56/58/11
f 59/75/11 57/73/11 58/70/11
f 58/70/11 64/74/11 63/71/11
f 63/71/11 62/76/11 61/72/11
f 61/72/11 60/55/11 59/75/11
f 59/75/11 58/70/11 61/72/11
f 42/65/36 58/70/36 57/73/36
f 42/65/37 48/69/37 64/74/37
f 46/68/38 62/76/38 63/71/38
f 44/56/39 60/55/39 61/72/39
f 41/64/40 57/73/40 59/75/40
f 47/67/41 63/71/41 64/74/41
f 45/66/42 61/72/42 62/76/42
