# Blender v2.93.8 OBJ File: 'CupTea1.blend'
# www.blender.org
mtllib CupTea1.mtl
o CupTea1_Cube.023
v 0.040101 -0.006012 0.007042
v 0.043534 0.007850 0.007042
v 0.040101 -0.006012 -0.007042
v 0.043534 0.007850 -0.007042
v 0.056694 -0.008224 0.007042
v 0.052642 0.004669 0.007042
v 0.056694 -0.008224 -0.007042
v 0.052642 0.004669 -0.007042
v 0.051361 0.030681 0.007042
v 0.049603 0.044889 0.007042
v 0.051361 0.030681 -0.007042
v 0.049603 0.044889 -0.007042
v 0.062097 0.031991 0.007042
v 0.066630 0.043578 0.007042
v 0.062097 0.031991 -0.007042
v 0.066630 0.043578 -0.007042
v 0.080702 0.037022 -0.007042
v 0.090373 0.016079 -0.007042
v 0.073698 -0.005382 -0.007042
v 0.073698 -0.005382 0.007042
v 0.090373 0.016079 0.007042
v 0.080702 0.037022 0.007042
v 0.068834 0.005626 0.007042
v 0.076071 0.017340 0.007042
v 0.073702 0.029080 0.007042
v 0.068834 0.005626 -0.007042
v 0.076071 0.017340 -0.007042
v 0.073702 0.029080 -0.007042
v -0.017373 -0.041253 -0.041525
v -0.017373 -0.029877 -0.041525
v 0.011600 -0.041253 -0.029363
v 0.011600 -0.029877 -0.029363
v 0.023601 -0.041253 0.000000
v 0.023601 -0.029877 0.000000
v 0.011600 -0.041253 0.029363
v 0.011600 -0.029877 0.029363
v -0.017373 -0.041253 0.041525
v -0.017373 -0.029877 0.041525
v -0.046346 -0.041253 0.029363
v -0.046346 -0.029877 0.029363
v -0.058347 -0.041253 -0.000000
v -0.058347 -0.029877 -0.000000
v -0.046346 -0.041253 -0.029363
v -0.046346 -0.029876 -0.029363
v 0.028796 -0.000647 -0.046790
v -0.017373 -0.000647 -0.066171
v 0.047920 -0.000647 0.000000
v 0.028796 -0.000647 0.046790
v -0.017373 -0.000647 0.066171
v -0.063543 -0.000647 0.046790
v -0.082667 -0.000647 -0.000000
v -0.063543 -0.000647 -0.046790
v 0.031481 0.026301 -0.049511
v -0.017373 0.026301 -0.070019
v 0.051717 0.026301 0.000000
v 0.031481 0.026301 0.049511
v -0.017373 0.026301 0.070019
v -0.066227 0.026301 0.049511
v -0.086463 0.026301 -0.000000
v -0.066227 0.026301 -0.049511
v 0.029365 0.046441 -0.047367
v -0.017373 0.046441 -0.066987
v 0.048725 0.046441 0.000000
v 0.029365 0.046441 0.047367
v -0.017373 0.046441 0.066987
v -0.064112 0.046441 0.047367
v -0.083472 0.046441 -0.000000
v -0.064112 0.046441 -0.047367
v 0.034123 0.046441 -0.052188
v -0.017373 0.046441 -0.073805
v 0.055453 0.046441 0.000000
v 0.034123 0.046441 0.052188
v -0.017373 0.046441 0.073805
v -0.068869 0.046441 0.052188
v -0.090199 0.046441 -0.000000
v -0.068869 0.046441 -0.052188
v 0.025911 0.024402 -0.043866
v -0.017373 0.024402 -0.062036
v 0.043839 0.024402 0.000000
v 0.025911 0.024402 0.043866
v -0.017373 0.024402 0.062036
v -0.060657 0.024402 0.043866
v -0.078586 0.024402 -0.000000
v -0.060657 0.024402 -0.043866
v 0.024805 -0.005619 -0.042745
v -0.017373 -0.005619 -0.060451
v 0.042275 -0.005619 0.000000
v 0.024805 -0.005619 0.042745
v -0.017373 -0.005619 0.060451
v -0.059551 -0.005619 0.042745
v -0.077022 -0.005619 -0.000000
v -0.059551 -0.005619 -0.042745
v 0.008109 -0.030005 -0.025825
v -0.017373 -0.030005 -0.036521
v 0.018663 -0.030005 0.000000
v 0.008109 -0.030005 0.025825
v -0.017373 -0.030005 0.036521
v -0.042855 -0.030005 0.025825
v -0.053410 -0.030005 -0.000000
v -0.042855 -0.030005 -0.025825
v -0.113425 -0.000145 -0.055455
v -0.113425 -0.000145 0.055455
v -0.017373 -0.000145 0.110910
v 0.078678 -0.000145 0.055455
v 0.078678 -0.000145 -0.055455
v -0.017373 -0.000145 -0.110910
v -0.017374 -0.041508 -0.045108
v 0.021691 -0.041508 -0.022554
v 0.021691 -0.041508 0.022554
v -0.017374 -0.041508 0.045108
v -0.056438 -0.041508 0.022554
v -0.056438 -0.041508 -0.022554
v -0.017374 -0.050067 -0.045108
v 0.021691 -0.050067 -0.022554
v 0.021691 -0.050067 0.022554
v -0.017374 -0.050067 0.045108
v -0.056438 -0.050067 0.022554
v -0.056438 -0.050067 -0.022554
v -0.121962 -0.000145 -0.060384
v -0.017374 -0.000145 -0.120769
v -0.017374 -0.000145 0.120769
v -0.121962 -0.000145 0.060384
v 0.087215 -0.000145 0.060384
v 0.087215 -0.000145 -0.060384
v -0.052746 -0.039442 -0.020423
v -0.017374 -0.039442 -0.040845
v -0.017374 -0.039442 0.040845
v -0.052746 -0.039442 0.020423
v 0.017999 -0.039442 0.020423
v 0.017999 -0.039442 -0.020423
vt 0.625000 0.000000
vt 0.375000 0.250000
vt 0.375000 0.000000
vt 0.625000 0.500000
vt 0.375000 0.500000
vt 0.625000 0.750000
vt 0.375000 1.000000
vt 0.375000 0.750000
vt 0.125000 0.750000
vt 0.125000 0.500000
vt 0.875000 0.500000
vt 0.625000 0.000000
vt 0.375000 0.250000
vt 0.375000 0.000000
vt 0.625000 0.250000
vt 0.375000 0.500000
vt 0.375000 0.750000
vt 0.625000 1.000000
vt 0.375000 1.000000
vt 0.125000 0.750000
vt 0.125000 0.500000
vt 0.625000 0.500000
vt 0.875000 0.750000
vt 0.625000 0.750000
vt 0.577461 0.500000
vt 0.422539 0.750000
vt 0.577461 0.750000
vt 0.422539 0.500000
vt 0.500000 0.500000
vt 0.500000 0.750000
vt 0.424016 0.500000
vt 0.424016 0.750000
vt 0.575984 0.750000
vt 0.500000 0.750000
vt 0.500000 0.500000
vt 0.575984 0.500000
vt 1.000000 0.500000
vt 0.875000 1.000000
vt 0.875000 0.500000
vt 0.750000 0.500000
vt 0.750000 1.000000
vt 0.625000 0.500000
vt 0.625000 1.000000
vt 0.500000 0.500000
vt 0.500000 1.000000
vt 0.375000 0.500000
vt 0.375000 1.000000
vt 0.250000 0.500000
vt 0.375000 1.000000
vt 0.250000 1.000000
vt 0.125000 0.500000
vt 0.000000 1.000000
vt 0.000000 0.500000
vt 0.580294 0.080294
vt 0.510000 0.250000
vt 0.919706 0.080294
vt 0.875000 1.000000
vt 0.750000 1.000000
vt 0.750000 1.000000
vt 0.125000 1.000000
vt 0.000000 1.000000
vt 1.000000 1.000000
vt 0.625000 1.000000
vt 0.250000 1.000000
vt 0.500000 1.000000
vt 0.125000 1.000000
vt 0.000000 1.000000
vt 0.125000 1.000000
vt 0.000000 1.000000
vt 0.250000 1.000000
vt 0.125000 1.000000
vt 0.375000 1.000000
vt 0.625000 1.000000
vt 1.000000 1.000000
vt 0.875000 1.000000
vt 0.500000 1.000000
vt 0.032171 0.250000
vt 0.095972 0.404028
vt 0.095972 0.404028
vt 0.250000 1.000000
vt 0.625000 1.000000
vt 0.500000 1.000000
vt 0.750000 1.000000
vt 0.375000 1.000000
vt 1.000000 1.000000
vt 0.875000 1.000000
vt 0.250000 0.467829
vt 0.419706 0.419706
vt 0.250000 0.490000
vt 0.404028 0.404028
vt 0.490000 0.250000
vt 0.404028 0.095972
vt 0.467829 0.250000
vt 0.250000 0.032171
vt 0.419706 0.080294
vt 0.080294 0.080294
vt 0.250000 0.010000
vt 0.095972 0.095972
vt 0.010000 0.250000
vt 0.080294 0.419706
vt 0.032171 0.250000
vt 0.095972 0.404028
vt 0.250000 0.032171
vt 0.095972 0.095972
vt 0.404028 0.095972
vt 0.250000 0.467829
vt 0.404028 0.404028
vt 0.467829 0.250000
vt 0.467829 0.250000
vt 0.404028 0.404028
vt 0.467829 0.250000
vt 0.250000 0.032171
vt 0.095972 0.095972
vt 0.404028 0.095972
vt 0.250000 0.467829
vt 0.404028 0.404028
vt 0.032171 0.250000
vt 0.404028 0.095972
vt 0.032171 0.250000
vt 0.095972 0.404028
vt 0.250000 0.032171
vt 0.095972 0.095972
vt 0.250000 0.467829
vt 0.166667 0.500000
vt -0.000000 0.500000
vt -0.000000 0.500000
vt 0.666667 0.500000
vt 0.500000 0.500000
vt 0.500000 0.500000
vt 0.138934 0.500000
vt 0.694399 0.500000
vt 0.694399 0.500000
vt 0.833333 0.500000
vt 0.666667 0.500000
vt 0.333333 0.500000
vt 0.333333 0.500000
vt 1.000000 0.500000
vt 0.833333 0.500000
vt 0.166667 0.500000
vt 0.833333 0.500000
vt 0.750000 0.010000
vt 0.542154 0.130000
vt 0.542154 0.370000
vt 0.333333 0.500000
vt 0.666667 0.500000
vt 1.000000 0.500000
vt 1.000000 0.500000
vt 0.166667 0.500000
vt 0.500000 0.500000
vt 0.199651 0.500000
vt 0.342914 0.500000
vt 0.490419 0.500000
vt 0.633682 0.500000
vt 0.490419 0.500000
vt 0.633682 0.500000
vt 0.138934 0.500000
vt 0.199651 0.500000
vt 0.342914 0.500000
vt 0.625000 0.250000
vt 0.625000 1.000000
vt 0.875000 0.750000
vt 0.875000 0.500000
vt 0.580294 0.419706
vt 0.750000 0.490000
vt 0.919706 0.419706
vt 0.990000 0.250000
vt 0.750000 0.010000
vt 1.000000 1.000000
vt 0.750000 0.490000
vt 0.957846 0.370000
vt 0.957846 0.130000
vt -0.000000 0.500000
vn -0.9707 0.2404 0.0000
vn 0.0000 0.0000 -1.0000
vn 0.0000 0.0000 1.0000
vn -0.1322 -0.9912 0.0000
vn 0.3298 0.9441 0.0000
vn -0.9924 -0.1228 0.0000
vn 0.1212 -0.9926 0.0000
vn 0.0768 0.9971 0.0000
vn 0.4223 0.9065 0.0000
vn -0.2433 -0.9699 0.0000
vn 0.9079 0.4192 0.0000
vn 0.7897 -0.6135 0.0000
vn 0.1649 -0.9863 0.0000
vn -0.9802 -0.1978 0.0000
vn -0.8508 0.5255 -0.0000
vn -0.0590 0.9983 0.0000
vn 0.3871 0.0000 -0.9221
vn 0.9257 0.0000 -0.3783
vn 0.9257 -0.0000 0.3783
vn 0.3871 0.0000 0.9221
vn -0.3871 -0.0000 0.9221
vn -0.9257 0.0000 0.3783
vn -0.3056 -0.6138 0.7279
vn -0.9257 0.0000 -0.3783
vn -0.3871 0.0000 -0.9221
vn 0.0000 -1.0000 0.0000
vn 0.9179 -0.1293 -0.3752
vn -0.3056 -0.6138 -0.7279
vn 0.3056 -0.6138 -0.7279
vn 0.7334 -0.6102 0.2997
vn -0.7334 -0.6102 0.2997
vn 0.3056 -0.6138 0.7279
vn -0.7334 -0.6102 -0.2997
vn 0.7334 -0.6102 -0.2997
vn -0.3814 -0.1708 -0.9085
vn -0.9179 -0.1293 -0.3752
vn -0.3838 -0.1305 0.9142
vn 0.9179 -0.1293 0.3752
vn 0.3838 -0.1305 -0.9142
vn -0.3838 -0.1305 -0.9142
vn -0.9179 -0.1293 0.3752
vn 0.3838 -0.1305 0.9142
vn 0.9068 0.2010 0.3706
vn -0.9123 -0.1692 0.3729
vn 0.3814 -0.1708 0.9085
vn 0.9123 -0.1692 -0.3729
vn -0.9123 -0.1692 -0.3729
vn -0.3814 -0.1708 0.9085
vn 0.9123 -0.1692 0.3729
vn 0.3814 -0.1708 -0.9085
vn 0.0000 1.0000 0.0000
vn 0.9246 0.0482 0.3779
vn 0.3790 0.2028 -0.9029
vn -0.9068 0.2010 -0.3706
vn -0.3790 0.2028 0.9029
vn 0.3790 0.2028 0.9029
vn 0.9068 0.2010 -0.3706
vn -0.3790 0.2028 -0.9029
vn -0.9068 0.2010 0.3706
vn -0.6893 0.6674 0.2817
vn 0.3866 0.0486 -0.9210
vn -0.9246 0.0482 -0.3779
vn -0.3866 0.0486 0.9210
vn 0.3866 0.0486 0.9210
vn 0.9246 0.0482 -0.3779
vn -0.3866 0.0486 -0.9210
vn -0.9246 0.0482 0.3779
vn 0.6893 0.6674 0.2817
vn 0.2870 0.6709 -0.6837
vn -0.6893 0.6674 -0.2817
vn -0.2870 0.6709 0.6837
vn 0.2870 0.6709 0.6837
vn 0.6893 0.6674 -0.2817
vn -0.2870 0.6709 -0.6837
vn -0.2669 -0.8456 -0.4623
vn 0.2669 -0.8456 0.4623
vn -0.2718 0.8394 0.4708
vn 0.5338 -0.8456 0.0000
vn -0.2669 -0.8456 0.4623
vn 0.2669 -0.8456 -0.4623
vn -0.5338 -0.8456 0.0000
vn 1.0000 0.0000 0.0000
vn -1.0000 -0.0000 0.0000
vn 0.5000 0.0000 0.8660
vn 0.5000 0.0000 -0.8660
vn -0.5000 0.0000 -0.8660
vn -0.5000 0.0000 0.8660
vn -0.2718 0.8394 -0.4708
vn 0.2718 0.8393 0.4708
vn 0.5436 0.8393 0.0000
vn -0.5436 0.8394 -0.0000
vn 0.2718 0.8394 -0.4708
vn 0.2718 0.8393 -0.4708
usemtl Cup2
s off
f 2/1/1 3/2/1 1/3/1
f 3/2/2 8/4/2 7/5/2
f 6/6/3 1/7/3 5/8/3
f 7/5/4 1/9/4 3/10/4
f 4/11/5 6/6/5 8/4/5
f 10/12/6 11/13/6 9/14/6
f 12/15/2 15/16/2 11/13/2
f 13/17/3 10/18/3 9/19/3
f 15/16/7 9/20/7 11/21/7
f 16/22/8 10/23/8 14/24/8
f 14/24/9 17/25/9 16/22/9
f 14/24/3 25/26/3 22/27/3
f 13/17/10 28/28/10 25/26/10
f 16/22/2 28/28/2 15/16/2
f 22/27/11 18/29/11 17/25/11
f 21/30/12 19/31/12 18/29/12
f 20/32/13 7/5/13 19/31/13
f 25/26/3 21/30/3 22/27/3
f 21/30/3 23/33/3 20/32/3
f 23/33/3 5/8/3 20/32/3
f 28/28/14 24/34/14 25/26/14
f 27/35/15 23/33/15 24/34/15
f 23/33/16 8/4/16 6/6/16
f 28/28/2 18/29/2 27/35/2
f 18/29/2 26/36/2 27/35/2
f 26/36/2 7/5/2 8/4/2
f 29/37/17 32/38/17 31/39/17
f 32/38/18 33/40/18 31/39/18
f 34/41/19 35/42/19 33/40/19
f 36/43/20 37/44/20 35/42/20
f 38/45/21 39/46/21 37/44/21
f 40/47/22 41/48/22 39/46/22
f 38/45/23 50/49/23 40/47/23
f 42/50/24 43/51/24 41/48/24
f 43/51/25 30/52/25 29/53/25
f 39/54/26 41/55/26 35/56/26
f 45/57/27 55/58/27 47/59/27
f 30/52/28 52/60/28 46/61/28
f 30/62/29 45/57/29 32/38/29
f 36/43/30 47/59/30 48/63/30
f 40/47/31 51/64/31 42/50/31
f 38/45/32 48/63/32 49/65/32
f 44/66/33 51/64/33 52/60/33
f 32/38/34 47/59/34 34/41/34
f 54/67/35 76/68/35 70/69/35
f 52/60/36 59/70/36 60/71/36
f 49/65/37 58/72/37 50/49/37
f 48/63/38 55/58/38 56/73/38
f 46/74/39 53/75/39 45/57/39
f 46/61/40 60/71/40 54/67/40
f 50/49/41 59/70/41 51/64/41
f 49/65/42 56/73/42 57/76/42
f 67/77/43 84/78/43 68/79/43
f 58/72/44 75/80/44 59/70/44
f 57/76/45 72/81/45 73/82/45
f 53/75/46 71/83/46 55/58/46
f 60/71/47 75/80/47 76/68/47
f 57/76/48 74/84/48 58/72/48
f 56/73/49 71/83/49 72/81/49
f 54/85/50 69/86/50 53/75/50
f 62/87/51 69/88/51 70/89/51
f 61/90/51 71/91/51 69/88/51
f 64/92/51 71/91/51 63/93/51
f 65/94/51 72/95/51 64/92/51
f 65/94/51 74/96/51 73/97/51
f 66/98/51 75/99/51 74/96/51
f 68/79/51 75/99/51 67/77/51
f 62/87/51 76/100/51 68/79/51
f 83/101/52 92/102/52 84/78/52
f 66/98/53 81/103/53 82/104/53
f 63/93/54 80/105/54 64/92/54
f 61/90/55 78/106/55 77/107/55
f 68/79/56 78/106/56 62/87/56
f 67/77/57 82/104/57 83/101/57
f 64/92/58 81/103/58 65/94/58
f 63/93/59 77/107/59 79/108/59
f 87/109/60 93/110/60 95/111/60
f 82/104/61 89/112/61 90/113/61
f 79/108/62 88/114/62 80/105/62
f 77/107/63 86/115/63 85/116/63
f 84/78/64 86/115/64 78/106/64
f 83/101/65 90/113/65 91/117/65
f 80/105/66 89/112/66 81/103/66
f 79/108/67 85/116/67 87/109/67
f 96/118/51 95/111/51 99/119/51
f 91/117/68 100/120/68 92/102/68
f 90/113/69 97/121/69 98/122/69
f 87/109/70 96/118/70 88/114/70
f 85/116/71 94/123/71 93/110/71
f 92/102/72 94/123/72 86/115/72
f 91/117/73 98/122/73 99/119/73
f 88/114/74 97/121/74 89/112/74
f 112/124/75 120/125/75 107/126/75
f 109/127/76 121/128/76 110/129/76
f 106/130/77 130/131/77 105/132/77
f 108/133/78 123/134/78 109/127/78
f 110/129/79 122/135/79 111/136/79
f 108/133/80 120/137/80 124/138/80
f 112/124/81 122/135/81 119/139/81
f 109/127/82 114/140/82 108/133/82
f 116/141/26 117/142/26 118/143/26
f 112/124/83 117/144/83 111/136/83
f 110/129/84 115/145/84 109/127/84
f 108/133/85 113/146/85 107/147/85
f 107/126/86 118/148/86 112/124/86
f 111/136/87 116/149/87 110/129/87
f 101/150/51 120/125/51 119/139/51
f 102/151/51 121/128/51 103/152/51
f 103/152/51 123/134/51 104/153/51
f 104/153/51 124/138/51 105/132/51
f 106/130/51 124/138/51 120/125/51
f 101/150/51 122/135/51 102/151/51
f 127/154/51 129/155/51 130/131/51
f 103/152/88 129/155/88 127/154/88
f 101/150/89 126/156/89 106/130/89
f 102/151/90 125/157/90 101/150/90
f 105/132/91 129/155/91 104/153/91
f 102/151/92 127/154/92 128/158/92
f 2/1/1 4/159/1 3/2/1
f 3/2/2 4/159/2 8/4/2
f 6/6/3 2/160/3 1/7/3
f 7/5/4 5/8/4 1/9/4
f 4/11/5 2/161/5 6/6/5
f 10/12/6 12/15/6 11/13/6
f 12/15/2 16/22/2 15/16/2
f 13/17/3 14/24/3 10/18/3
f 15/16/7 13/17/7 9/20/7
f 16/22/8 12/162/8 10/23/8
f 14/24/9 22/27/9 17/25/9
f 14/24/3 13/17/3 25/26/3
f 13/17/10 15/16/10 28/28/10
f 16/22/2 17/25/2 28/28/2
f 22/27/11 21/30/11 18/29/11
f 21/30/12 20/32/12 19/31/12
f 20/32/13 5/8/13 7/5/13
f 25/26/3 24/34/3 21/30/3
f 21/30/3 24/34/3 23/33/3
f 23/33/3 6/6/3 5/8/3
f 28/28/14 27/35/14 24/34/14
f 27/35/15 26/36/15 23/33/15
f 23/33/16 26/36/16 8/4/16
f 28/28/2 17/25/2 18/29/2
f 18/29/2 19/31/2 26/36/2
f 26/36/2 19/31/2 7/5/2
f 29/37/17 30/62/17 32/38/17
f 32/38/18 34/41/18 33/40/18
f 34/41/19 36/43/19 35/42/19
f 36/43/20 38/45/20 37/44/20
f 38/45/21 40/47/21 39/46/21
f 40/47/22 42/50/22 41/48/22
f 38/45/23 49/65/23 50/49/23
f 42/50/24 44/66/24 43/51/24
f 43/51/25 44/66/25 30/52/25
f 43/163/26 29/164/26 31/165/26
f 31/165/26 33/166/26 43/163/26
f 33/166/26 35/56/26 41/55/26
f 43/163/26 33/166/26 41/55/26
f 35/56/26 37/167/26 39/54/26
f 45/57/27 53/75/27 55/58/27
f 30/52/28 44/66/28 52/60/28
f 30/62/29 46/74/29 45/57/29
f 36/43/30 34/41/30 47/59/30
f 40/47/31 50/49/31 51/64/31
f 38/45/32 36/43/32 48/63/32
f 44/66/33 42/50/33 51/64/33
f 32/38/34 45/57/34 47/59/34
f 54/67/35 60/71/35 76/68/35
f 52/60/36 51/64/36 59/70/36
f 49/65/37 57/76/37 58/72/37
f 48/63/38 47/59/38 55/58/38
f 46/74/39 54/85/39 53/75/39
f 46/61/40 52/60/40 60/71/40
f 50/49/41 58/72/41 59/70/41
f 49/65/42 48/63/42 56/73/42
f 67/77/43 83/101/43 84/78/43
f 58/72/44 74/84/44 75/80/44
f 57/76/45 56/73/45 72/81/45
f 53/75/46 69/86/46 71/83/46
f 60/71/47 59/70/47 75/80/47
f 57/76/48 73/82/48 74/84/48
f 56/73/49 55/58/49 71/83/49
f 54/85/50 70/168/50 69/86/50
f 62/87/51 61/90/51 69/88/51
f 61/90/51 63/93/51 71/91/51
f 64/92/51 72/95/51 71/91/51
f 65/94/51 73/97/51 72/95/51
f 65/94/51 66/98/51 74/96/51
f 66/98/51 67/77/51 75/99/51
f 68/79/51 76/100/51 75/99/51
f 62/87/51 70/89/51 76/100/51
f 83/101/52 91/117/52 92/102/52
f 66/98/53 65/94/53 81/103/53
f 63/93/54 79/108/54 80/105/54
f 61/90/55 62/87/55 78/106/55
f 68/79/56 84/78/56 78/106/56
f 67/77/57 66/98/57 82/104/57
f 64/92/58 80/105/58 81/103/58
f 63/93/59 61/90/59 77/107/59
f 87/109/60 85/116/60 93/110/60
f 82/104/61 81/103/61 89/112/61
f 79/108/62 87/109/62 88/114/62
f 77/107/63 78/106/63 86/115/63
f 84/78/64 92/102/64 86/115/64
f 83/101/65 82/104/65 90/113/65
f 80/105/66 88/114/66 89/112/66
f 79/108/67 77/107/67 85/116/67
f 95/111/51 93/110/51 99/119/51
f 93/110/51 94/123/51 100/120/51
f 99/119/51 93/110/51 100/120/51
f 99/119/51 98/122/51 96/118/51
f 98/122/51 97/121/51 96/118/51
f 91/117/68 99/119/68 100/120/68
f 90/113/69 89/112/69 97/121/69
f 87/109/70 95/111/70 96/118/70
f 85/116/71 86/115/71 94/123/71
f 92/102/72 100/120/72 94/123/72
f 91/117/73 90/113/73 98/122/73
f 88/114/74 96/118/74 97/121/74
f 112/124/75 119/139/75 120/125/75
f 109/127/76 123/134/76 121/128/76
f 106/130/77 126/156/77 130/131/77
f 108/133/78 124/138/78 123/134/78
f 110/129/79 121/128/79 122/135/79
f 108/133/80 107/147/80 120/137/80
f 112/124/81 111/136/81 122/135/81
f 109/127/82 115/145/82 114/140/82
f 118/143/26 113/169/26 116/141/26
f 113/169/26 114/170/26 116/141/26
f 114/170/26 115/171/26 116/141/26
f 112/124/83 118/148/83 117/144/83
f 110/129/84 116/149/84 115/145/84
f 108/133/85 114/140/85 113/146/85
f 107/126/86 113/172/86 118/148/86
f 111/136/87 117/144/87 116/149/87
f 101/150/51 106/130/51 120/125/51
f 102/151/51 122/135/51 121/128/51
f 103/152/51 121/128/51 123/134/51
f 104/153/51 123/134/51 124/138/51
f 106/130/51 105/132/51 124/138/51
f 101/150/51 119/139/51 122/135/51
f 130/131/51 126/156/51 127/154/51
f 126/156/51 125/157/51 127/154/51
f 125/157/51 128/158/51 127/154/51
f 103/152/88 104/153/88 129/155/88
f 101/150/89 125/157/89 126/156/89
f 102/151/90 128/158/90 125/157/90
f 105/132/91 130/131/91 129/155/91
f 102/151/93 103/152/93 127/154/93
