# Blender v2.93.8 OBJ File: 'Fan1.blend'
# www.blender.org
mtllib Fan1.mtl
o Fan1_Cylinder.014
v 0.003713 -0.292721 -0.129978
v 0.003713 0.026548 -0.046385
v 0.116137 -0.292721 -0.065070
v 0.043743 0.026548 -0.023273
v 0.116137 -0.292721 0.064746
v 0.043743 0.026548 0.022949
v 0.003713 -0.292721 0.129653
v 0.003713 0.026548 0.046060
v -0.108710 -0.292721 0.064746
v -0.036317 0.026548 0.022949
v -0.108710 -0.292721 -0.065070
v -0.036317 0.026548 -0.023273
v 0.134319 0.026548 -0.075567
v 0.003713 0.026548 -0.150973
v 0.134319 0.026548 0.075243
v 0.003713 0.026548 0.150649
v -0.126893 0.026548 0.075243
v -0.126893 0.026548 -0.075567
v 0.016258 0.084000 -0.007405
v 0.003713 0.084000 -0.014648
v 0.016258 0.084000 0.007081
v 0.003713 0.084000 0.014324
v -0.008832 0.084000 0.007081
v -0.008832 0.084000 -0.007405
v 0.033133 0.084000 -0.017147
v 0.003713 0.084000 -0.034133
v 0.033133 0.084000 0.016823
v 0.003713 0.084000 0.033809
v -0.025706 0.084000 0.016823
v -0.025706 0.084000 -0.017147
v 0.016258 0.421325 -0.007405
v 0.003713 0.421325 -0.014648
v 0.016258 0.421325 0.007081
v 0.003713 0.421325 0.014324
v -0.008832 0.421325 0.007081
v -0.008832 0.421325 -0.007405
v 0.091149 0.549092 -0.050643
v 0.003713 0.549092 -0.101124
v 0.091149 0.549092 0.050319
v 0.003713 0.549092 0.100800
v -0.083722 0.549092 0.050319
v -0.083722 0.549092 -0.050643
v 0.078212 0.443586 -0.043174
v 0.055950 0.421325 -0.030321
v 0.003713 0.421325 -0.060480
v 0.003713 0.443586 -0.086186
v 0.078212 0.443586 0.042850
v 0.055950 0.421325 0.029997
v 0.003713 0.443586 0.085862
v 0.003713 0.421325 0.060156
v -0.070786 0.443586 0.042850
v -0.048524 0.421325 0.029997
v -0.070786 0.443586 -0.043174
v -0.048524 0.421325 -0.030321
v 0.003713 -0.268540 -0.150973
v 0.134319 -0.268540 -0.075567
v 0.134319 -0.268540 0.075243
v 0.003713 -0.268540 0.150649
v -0.126893 -0.268540 0.075243
v -0.126893 -0.268540 -0.075567
v 0.003713 -0.337427 -0.129978
v 0.116137 -0.337427 -0.065070
v 0.116137 -0.337427 0.064746
v 0.003713 -0.337427 0.129653
v -0.108710 -0.337427 0.064746
v -0.108710 -0.337427 -0.065070
v 0.003713 -0.367866 -0.082526
v 0.075042 -0.367866 -0.041344
v 0.075042 -0.367866 0.041020
v 0.003713 -0.367866 0.082202
v -0.067616 -0.367866 0.041020
v -0.067616 -0.367866 -0.041344
v -0.097358 -0.154705 1.072087
v -0.097358 -0.141496 1.072087
v -0.097358 -0.154705 0.067747
v -0.097358 -0.141496 0.067747
v 0.104785 -0.154705 1.007221
v 0.104785 -0.141496 1.007221
v 0.104785 -0.154705 0.067747
v 0.104785 -0.141496 0.067747
v 1.075962 -0.154705 0.100909
v 1.075962 -0.141496 0.100909
v 0.071622 -0.154705 0.100909
v 0.071622 -0.141496 0.100909
v 1.011096 -0.154705 -0.101233
v 1.011096 -0.141496 -0.101233
v 0.071622 -0.154705 -0.101234
v 0.071622 -0.141496 -0.101234
v 0.010947 -0.154705 -1.077140
v 0.010947 -0.141496 -1.077140
v 0.098481 -0.154705 -0.076621
v 0.098481 -0.141496 -0.076621
v -0.184773 -0.154705 -0.994903
v -0.184773 -0.141496 -0.994903
v -0.102892 -0.154705 -0.059003
v -0.102892 -0.141496 -0.059003
v -1.068536 -0.154705 -0.101234
v -1.068536 -0.141496 -0.101234
v -0.064195 -0.154705 -0.101234
v -0.064195 -0.141496 -0.101234
v -1.003670 -0.154705 0.100909
v -1.003670 -0.141496 0.100909
v -0.064195 -0.154705 0.100909
v -0.064195 -0.141496 0.100909
vt 0.571090 0.353294
vt 0.571090 0.146706
vt 0.571090 0.146706
vt 0.750000 0.456588
vt 0.571090 0.353294
vt 0.571090 0.353294
vt 0.750000 0.043412
vt 0.928910 0.146706
vt 0.928910 0.146706
vt 0.928911 0.353294
vt 0.750000 0.456588
vt 0.750000 0.043412
vt 0.928911 0.353294
vt 0.928911 0.353294
vt 0.750000 0.043412
vt 0.571090 0.146706
vt 0.928910 0.146706
vt 0.750000 0.456588
vt 1.000000 1.000000
vt 0.833333 0.500000
vt 1.000000 0.500000
vt 0.833333 1.000000
vt 0.666667 0.500000
vt 0.666667 1.000000
vt 0.500000 0.500000
vt 0.500000 1.000000
vt 0.333333 0.500000
vt 0.166812 0.201972
vt 0.166812 0.298028
vt 0.166812 0.298028
vt 0.333333 1.000000
vt 0.166667 0.500000
vt 0.166667 1.000000
vt -0.000000 0.500000
vt 0.250000 0.346057
vt 0.457846 0.370000
vt 0.250000 0.490000
vt 0.333188 0.201972
vt 0.333188 0.298028
vt 0.250000 0.153943
vt 0.457846 0.130000
vt 0.250000 0.010000
vt 0.042154 0.130000
vt 0.042154 0.370000
vt 0.285473 0.229520
vt 0.250000 0.209040
vt 0.250000 0.209040
vt 0.250000 0.153943
vt 0.333188 0.298028
vt 0.250000 0.346057
vt 0.166812 0.201972
vt 0.333188 0.201972
vt 0.250000 0.290960
vt 0.285473 0.270480
vt 0.214527 0.229520
vt 0.214527 0.270480
vt 0.285473 0.270480
vt 0.250000 0.290960
vt 0.285473 0.270480
vt 0.250000 0.290960
vt 0.214527 0.229520
vt 0.285473 0.229520
vt 0.214527 0.270480
vt 0.250000 0.209040
vt 0.214527 0.229520
vt 0.214527 0.229520
vt 0.285473 0.229520
vt 0.250000 0.209040
vt 0.285473 0.270480
vt 0.285473 0.229520
vt 0.250000 0.209040
vt 0.214527 0.270480
vt 0.214527 0.270480
vt 0.250000 0.290960
vt 0.285473 0.229520
vt 0.214527 0.229520
vt 0.250000 0.290960
vt 0.214527 0.270480
vt 0.285473 0.270480
vt 0.957846 0.370000
vt 0.957846 0.130000
vt 0.750000 0.010000
vt 0.542154 0.130000
vt 0.542154 0.370000
vt 0.750000 0.490000
vt 0.625000 0.000000
vt 0.375000 0.250000
vt 0.375000 0.000000
vt 0.625000 0.250000
vt 0.375000 0.500000
vt 0.625000 0.500000
vt 0.375000 0.750000
vt 0.625000 0.750000
vt 0.375000 1.000000
vt 0.125000 0.500000
vt 0.125000 0.750000
vt 0.875000 0.500000
vt 0.625000 0.000000
vt 0.375000 0.250000
vt 0.375000 0.000000
vt 0.625000 0.250000
vt 0.375000 0.500000
vt 0.625000 0.500000
vt 0.375000 0.750000
vt 0.625000 0.750000
vt 0.375000 1.000000
vt 0.125000 0.500000
vt 0.125000 0.750000
vt 0.875000 0.500000
vt 0.625000 0.000000
vt 0.375000 0.250000
vt 0.375000 0.000000
vt 0.625000 0.250000
vt 0.375000 0.500000
vt 0.625000 0.500000
vt 0.375000 0.750000
vt 0.625000 0.750000
vt 0.375000 1.000000
vt 0.125000 0.500000
vt 0.125000 0.750000
vt 0.875000 0.500000
vt 0.625000 0.000000
vt 0.375000 0.250000
vt 0.375000 0.000000
vt 0.625000 0.250000
vt 0.375000 0.500000
vt 0.625000 0.500000
vt 0.375000 0.750000
vt 0.625000 0.750000
vt 0.375000 1.000000
vt 0.125000 0.500000
vt 0.125000 0.750000
vt 0.875000 0.500000
vt -0.000000 1.000000
vt 0.625000 1.000000
vt 0.875000 0.750000
vt 0.625000 1.000000
vt 0.875000 0.750000
vt 0.625000 1.000000
vt 0.875000 0.750000
vt 0.625000 1.000000
vt 0.875000 0.750000
vn -1.0000 0.0000 0.0000
vn -0.2976 -0.8036 -0.5155
vn 0.5000 0.0000 0.8660
vn 0.5000 0.0000 -0.8660
vn -0.5000 0.0000 -0.8660
vn -0.5000 0.0000 0.8660
vn 1.0000 0.0000 0.0000
vn 0.0000 -1.0000 0.0000
vn -0.2976 -0.8036 0.5155
vn 0.5952 -0.8036 0.0000
vn -0.5952 -0.8036 0.0000
vn 0.2976 -0.8036 0.5155
vn 0.2976 -0.8036 -0.5155
vn -0.9834 0.1816 0.0000
vn 0.0000 1.0000 0.0000
vn 0.4917 0.1816 0.8516
vn 0.4917 0.1816 -0.8516
vn -0.4917 0.1816 -0.8516
vn -0.4917 0.1816 0.8516
vn 0.9834 0.1816 0.0000
vn -0.4963 -0.1217 0.8596
vn 0.4963 -0.1217 0.8596
vn 0.9926 -0.1217 -0.0000
vn -0.9926 -0.1217 -0.0000
vn -0.4963 -0.1217 -0.8596
vn 0.3536 -0.7071 -0.6124
vn 0.7071 -0.7071 -0.0000
vn 0.3536 -0.7071 0.6124
vn -0.3536 -0.7071 0.6124
vn -0.7071 -0.7071 0.0000
vn -0.3536 -0.7071 -0.6124
vn 0.4963 -0.1217 -0.8596
vn 0.3996 -0.6010 -0.6922
vn 0.7993 -0.6010 0.0000
vn 0.3996 -0.6010 0.6922
vn -0.3996 -0.6010 0.6922
vn -0.7992 -0.6010 0.0000
vn -0.3996 -0.6010 -0.6922
vn 0.0000 0.0000 -1.0000
vn 0.3055 0.0000 0.9522
vn -0.0000 0.0000 1.0000
vn 0.9522 0.0000 -0.3055
vn 0.9962 0.0000 -0.0872
vn 0.0872 0.0000 0.9962
vn -0.9962 0.0000 0.0872
vn -0.3874 0.0000 -0.9219
vn -0.9522 0.0000 0.3055
vn 0.7992 -0.6010 0.0000
usemtl LightFan1
s off
f 11/1/1 65/2/1 9/3/1
f 61/4/2 72/5/2 66/6/2
f 7/7/3 63/8/3 5/9/3
f 3/10/4 61/4/4 1/11/4
f 1/11/5 66/6/5 11/1/5
f 9/3/6 64/12/6 7/7/6
f 5/9/7 62/13/7 3/10/7
f 68/14/8 70/15/8 72/5/8
f 64/12/9 71/16/9 70/15/9
f 63/8/10 68/14/10 62/13/10
f 65/2/11 72/5/11 71/16/11
f 64/12/12 69/17/12 63/8/12
f 62/13/13 67/18/13 61/4/13
f 11/1/1 66/6/1 65/2/1
f 61/4/2 67/18/2 72/5/2
f 7/7/3 64/12/3 63/8/3
f 3/10/4 62/13/4 61/4/4
f 1/11/5 61/4/5 66/6/5
f 9/3/6 65/2/6 64/12/6
f 5/9/7 63/8/7 62/13/7
f 72/5/8 67/18/8 68/14/8
f 68/14/8 69/17/8 70/15/8
f 70/15/8 71/16/8 72/5/8
f 64/12/9 65/2/9 71/16/9
f 63/8/10 69/17/10 68/14/10
f 65/2/11 66/6/11 72/5/11
f 64/12/12 70/15/12 69/17/12
f 62/13/13 68/14/13 67/18/13
usemtl MetalFan1
f 14/19/4 56/20/4 55/21/4
f 13/22/7 57/23/7 56/20/7
f 15/24/3 58/25/3 57/23/3
f 16/26/6 59/27/6 58/25/6
f 10/28/14 30/29/14 12/30/14
f 17/31/1 60/32/1 59/27/1
f 18/33/5 55/34/5 60/32/5
f 2/35/15 13/36/15 14/37/15
f 6/38/15 13/36/15 4/39/15
f 8/40/15 15/41/15 6/38/15
f 10/28/15 16/42/15 8/40/15
f 12/30/15 17/43/15 10/28/15
f 2/35/15 18/44/15 12/30/15
f 21/45/3 34/46/3 22/47/3
f 6/38/16 28/48/16 8/40/16
f 2/35/17 25/49/17 4/39/17
f 12/30/18 26/50/18 2/35/18
f 8/40/19 29/51/19 10/28/19
f 4/39/20 27/52/20 6/38/20
f 20/53/15 25/49/15 26/50/15
f 21/45/15 25/49/15 19/54/15
f 22/47/15 27/52/15 21/45/15
f 23/55/15 28/48/15 22/47/15
f 23/55/15 30/29/15 29/51/15
f 20/53/15 30/29/15 24/56/15
f 31/57/8 45/58/8 44/59/8
f 20/53/4 31/57/4 19/54/4
f 24/56/5 32/60/5 20/53/5
f 22/47/6 35/61/6 23/55/6
f 19/54/7 33/62/7 21/45/7
f 23/55/1 36/63/1 24/56/1
f 49/64/21 41/65/21 51/66/21
f 47/67/22 40/68/22 49/64/22
f 43/69/23 39/70/23 47/67/23
f 33/62/8 50/71/8 34/46/8
f 51/66/24 42/72/24 53/73/24
f 40/68/15 39/70/15 38/74/15
f 33/62/8 44/59/8 48/75/8
f 36/63/8 45/58/8 32/60/8
f 35/61/8 50/71/8 52/76/8
f 53/73/25 38/74/25 46/77/25
f 35/61/8 54/78/8 36/63/8
f 44/59/26 46/77/26 43/69/26
f 48/75/27 43/69/27 47/67/27
f 48/75/28 49/64/28 50/71/28
f 52/76/29 49/64/29 51/66/29
f 52/76/30 53/73/30 54/78/30
f 54/78/31 46/77/31 45/58/31
f 43/69/32 38/74/32 37/79/32
f 1/11/33 56/80/33 3/10/33
f 5/9/34 56/80/34 57/81/34
f 7/7/35 57/81/35 58/82/35
f 7/7/36 59/83/36 9/3/36
f 9/3/37 60/84/37 11/1/37
f 1/11/38 60/84/38 55/85/38
f 74/86/1 75/87/1 73/88/1
f 76/89/39 79/90/39 75/87/39
f 80/91/7 77/92/7 79/90/7
f 78/93/40 73/94/40 77/92/40
f 75/95/8 77/92/8 73/96/8
f 76/97/15 78/93/15 80/91/15
f 82/98/41 83/99/41 81/100/41
f 84/101/1 87/102/1 83/99/1
f 88/103/39 85/104/39 87/102/39
f 86/105/42 81/106/42 85/104/42
f 83/107/8 85/104/8 81/108/8
f 84/109/15 86/105/15 88/103/15
f 90/110/43 91/111/43 89/112/43
f 92/113/44 95/114/44 91/111/44
f 96/115/45 93/116/45 95/114/45
f 94/117/46 89/118/46 93/116/46
f 91/119/8 93/116/8 89/120/8
f 92/121/15 94/117/15 96/115/15
f 98/122/39 99/123/39 97/124/39
f 100/125/7 103/126/7 99/123/7
f 104/127/41 101/128/41 103/126/41
f 102/129/47 97/130/47 101/128/47
f 99/131/8 101/128/8 97/132/8
f 100/133/15 102/129/15 104/127/15
f 14/19/4 13/22/4 56/20/4
f 13/22/7 15/24/7 57/23/7
f 15/24/3 16/26/3 58/25/3
f 16/26/6 17/31/6 59/27/6
f 10/28/14 29/51/14 30/29/14
f 17/31/1 18/33/1 60/32/1
f 18/33/5 14/134/5 55/34/5
f 2/35/15 4/39/15 13/36/15
f 6/38/15 15/41/15 13/36/15
f 8/40/15 16/42/15 15/41/15
f 10/28/15 17/43/15 16/42/15
f 12/30/15 18/44/15 17/43/15
f 2/35/15 14/37/15 18/44/15
f 21/45/3 33/62/3 34/46/3
f 6/38/16 27/52/16 28/48/16
f 2/35/17 26/50/17 25/49/17
f 12/30/18 30/29/18 26/50/18
f 8/40/19 28/48/19 29/51/19
f 4/39/20 25/49/20 27/52/20
f 20/53/15 19/54/15 25/49/15
f 21/45/15 27/52/15 25/49/15
f 22/47/15 28/48/15 27/52/15
f 23/55/15 29/51/15 28/48/15
f 23/55/15 24/56/15 30/29/15
f 20/53/15 26/50/15 30/29/15
f 31/57/8 32/60/8 45/58/8
f 20/53/4 32/60/4 31/57/4
f 24/56/5 36/63/5 32/60/5
f 22/47/6 34/46/6 35/61/6
f 19/54/7 31/57/7 33/62/7
f 23/55/1 35/61/1 36/63/1
f 49/64/21 40/68/21 41/65/21
f 47/67/22 39/70/22 40/68/22
f 43/69/23 37/79/23 39/70/23
f 33/62/8 48/75/8 50/71/8
f 51/66/24 41/65/24 42/72/24
f 39/70/15 37/79/15 38/74/15
f 38/74/15 42/72/15 41/65/15
f 41/65/15 40/68/15 38/74/15
f 33/62/8 31/57/8 44/59/8
f 36/63/8 54/78/8 45/58/8
f 35/61/8 34/46/8 50/71/8
f 53/73/25 42/72/25 38/74/25
f 35/61/8 52/76/8 54/78/8
f 44/59/26 45/58/26 46/77/26
f 48/75/27 44/59/27 43/69/27
f 48/75/28 47/67/28 49/64/28
f 52/76/29 50/71/29 49/64/29
f 52/76/30 51/66/30 53/73/30
f 54/78/31 53/73/31 46/77/31
f 43/69/32 46/77/32 38/74/32
f 1/11/33 55/85/33 56/80/33
f 5/9/48 3/10/48 56/80/48
f 7/7/35 5/9/35 57/81/35
f 7/7/36 58/82/36 59/83/36
f 9/3/37 59/83/37 60/84/37
f 1/11/38 11/1/38 60/84/38
f 74/86/1 76/89/1 75/87/1
f 76/89/39 80/91/39 79/90/39
f 80/91/7 78/93/7 77/92/7
f 78/93/40 74/135/40 73/94/40
f 75/95/8 79/90/8 77/92/8
f 76/97/15 74/136/15 78/93/15
f 82/98/41 84/101/41 83/99/41
f 84/101/1 88/103/1 87/102/1
f 88/103/39 86/105/39 85/104/39
f 86/105/42 82/137/42 81/106/42
f 83/107/8 87/102/8 85/104/8
f 84/109/15 82/138/15 86/105/15
f 90/110/43 92/113/43 91/111/43
f 92/113/44 96/115/44 95/114/44
f 96/115/45 94/117/45 93/116/45
f 94/117/46 90/139/46 89/118/46
f 91/119/8 95/114/8 93/116/8
f 92/121/15 90/140/15 94/117/15
f 98/122/39 100/125/39 99/123/39
f 100/125/7 104/127/7 103/126/7
f 104/127/41 102/129/41 101/128/41
f 102/129/47 98/141/47 97/130/47
f 99/131/8 103/126/8 101/128/8
f 100/133/15 98/142/15 102/129/15
