# Blender v2.93.8 OBJ File: 'FlowerBed2.blend'
# www.blender.org
mtllib FlowerBed2.mtl
o FlowerBed2_Cube.011
v -2.328044 -0.141008 0.591986
v -2.143123 0.069721 0.447178
v -2.328044 -0.141008 -0.591986
v -2.143123 0.069721 -0.447178
v -2.328044 0.069721 0.591986
v -2.328044 0.069721 -0.591986
v -2.039515 0.001565 0.409412
v -2.039515 0.001565 -0.409412
v 2.328044 -0.141008 -0.591986
v 2.143123 0.069721 -0.447178
v 2.328044 -0.141008 0.591986
v 2.143123 0.069721 0.447178
v 2.328044 0.069721 -0.591986
v 2.328044 0.069721 0.591986
v 2.039515 0.001565 -0.409412
v 2.039515 0.001565 0.409412
vt 0.625000 0.000000
vt 0.375000 0.250000
vt 0.375000 0.000000
vt 0.625000 1.000000
vt 0.375000 1.000000
vt 0.858627 0.516374
vt 0.875000 0.750000
vt 0.858626 0.733626
vt 0.875000 0.750000
vt 0.858626 0.733626
vt 0.858627 0.516374
vt 0.875000 0.500000
vt 0.858627 0.516374
vt 0.858626 0.733626
vt 0.858627 0.516374
vt 0.125000 0.750000
vt 0.125000 0.750000
vt 0.125000 0.500000
vt 0.625000 1.000000
vt 0.375000 0.250000
vt 0.625000 0.250000
vt 0.625000 0.000000
vt 0.375000 0.000000
vt 0.858626 0.733626
vt 0.625000 0.250000
vt 0.875000 0.500000
vt 0.125000 0.500000
vt 0.375000 1.000000
vn -1.0000 0.0000 0.0000
vn -0.0000 0.0000 -1.0000
vn 0.0000 1.0000 0.0000
vn 0.5496 0.8354 0.0000
vn -0.0000 0.4847 -0.8747
vn 0.0000 -1.0000 0.0000
vn 0.0000 0.0000 1.0000
vn 1.0000 0.0000 0.0000
vn -0.5496 0.8354 0.0000
vn 0.0000 0.4847 0.8747
usemtl ConcreteFlowerBed2
s off
f 5/1/1 3/2/1 1/3/1
f 3/2/2 13/4/2 9/5/2
f 4/6/3 5/7/3 2/8/3
f 13/9/3 4/6/3 10/10/3
f 12/11/3 5/7/3 14/12/3
f 2/8/4 8/13/4 4/6/4
f 7/14/5 12/11/5 16/15/5
f 1/16/6 9/17/6 11/18/6
f 5/19/7 11/20/7 14/21/7
f 13/22/8 11/20/8 9/23/8
f 12/11/3 13/9/3 10/10/3
f 10/10/9 16/15/9 12/11/9
f 4/6/10 15/24/10 10/10/10
f 5/1/1 6/25/1 3/2/1
f 3/2/2 6/25/2 13/4/2
f 4/6/3 6/26/3 5/7/3
f 13/9/3 6/26/3 4/6/3
f 12/11/3 2/8/3 5/7/3
f 2/8/4 7/14/4 8/13/4
f 7/14/5 2/8/5 12/11/5
f 1/16/6 3/27/6 9/17/6
f 5/19/7 1/28/7 11/20/7
f 13/22/8 14/21/8 11/20/8
f 12/11/3 14/12/3 13/9/3
f 10/10/9 15/24/9 16/15/9
f 4/6/10 8/13/10 15/24/10
usemtl GroundFlowerBed5
f 8/13/3 16/15/3 15/24/3
f 8/13/3 7/14/3 16/15/3
