# Blender v2.93.8 OBJ File: 'FlowerBed3.blend'
# www.blender.org
mtllib FlowerBed3.mtl
o FlowerBed3_Cylinder.007
v 0.000000 -0.376635 -1.701489
v 0.850744 -0.376635 -1.473532
v 1.473533 -0.376635 -0.850744
v 1.701489 -0.376635 0.000000
v 1.473532 -0.376635 0.850744
v 0.850744 -0.376635 1.473532
v -0.000000 -0.376635 1.701489
v -0.850744 -0.376635 1.473532
v -1.473533 -0.376635 0.850744
v -1.701489 -0.376635 -0.000000
v -1.473533 -0.376635 -0.850744
v -0.850745 -0.376635 -1.473532
v 0.000000 -0.017374 -1.352708
v 0.676354 -0.017374 -1.171479
v 1.171479 -0.017374 -0.676354
v 1.352708 -0.017374 0.000000
v 1.171479 -0.017374 0.676354
v 0.676354 -0.017374 1.171479
v -0.000000 -0.017374 1.352708
v -0.676354 -0.017374 1.171479
v -1.171479 -0.017374 0.676354
v -1.352708 -0.017374 -0.000000
v -1.171479 -0.017374 -0.676354
v -0.676354 -0.017374 -1.171479
v 0.000000 0.126895 -1.411497
v 0.000000 0.070109 -1.352708
v 0.676354 0.070109 -1.171479
v 0.705748 0.126895 -1.222392
v 1.171479 0.070109 -0.676354
v 1.222392 0.126895 -0.705748
v 1.352708 0.070109 0.000000
v 1.411497 0.126895 0.000000
v 1.171479 0.070109 0.676354
v 1.222392 0.126895 0.705749
v 0.676354 0.070109 1.171479
v 0.705749 0.126895 1.222392
v -0.000000 0.070109 1.352708
v -0.000000 0.126895 1.411497
v -0.676354 0.070109 1.171479
v -0.705748 0.126895 1.222392
v -1.171479 0.070109 0.676354
v -1.222392 0.126895 0.705748
v -1.352708 0.070109 -0.000000
v -1.411497 0.126895 -0.000000
v -1.171479 0.070109 -0.676354
v -1.222392 0.126895 -0.705748
v -0.676354 0.070109 -1.171479
v -0.705749 0.126895 -1.222392
v 0.000000 0.070109 -1.701489
v 0.000000 0.126895 -1.642700
v 0.821350 0.126895 -1.422619
v 0.850744 0.070109 -1.473532
v 1.422620 0.126895 -0.821350
v 1.473533 0.070109 -0.850744
v 1.642700 0.126895 0.000000
v 1.701489 0.070109 0.000000
v 1.422619 0.126895 0.821350
v 1.473532 0.070109 0.850744
v 0.821350 0.126895 1.422619
v 0.850744 0.070109 1.473532
v -0.000000 0.126895 1.642700
v -0.000000 0.070109 1.701489
v -0.821350 0.126895 1.422619
v -0.850744 0.070109 1.473532
v -1.422620 0.126895 0.821350
v -1.473533 0.070109 0.850744
v -1.642700 0.126895 -0.000000
v -1.701489 0.070109 -0.000000
v -1.422620 0.126895 -0.821350
v -1.473533 0.070109 -0.850744
v -0.821350 0.126895 -1.422619
v -0.850745 0.070109 -1.473532
vt 0.929292 0.250000
vt 0.839646 0.405272
vt 0.570708 0.250000
vt 0.750000 0.429292
vt 0.660354 0.405272
vt 0.594728 0.339646
vt 0.594728 0.160354
vt 0.660354 0.094728
vt 0.750000 0.070708
vt 0.839646 0.094728
vt 0.905272 0.160354
vt 0.905272 0.339646
vt 0.000000 0.556388
vt 0.083333 1.000000
vt 0.083333 0.556388
vt 0.750000 0.556388
vt 0.833333 1.000000
vt 0.833333 0.556388
vt 0.666667 0.556388
vt 0.750000 1.000000
vt 0.583333 0.556388
vt 0.666667 1.000000
vt 0.500000 0.556388
vt 0.583333 1.000000
vt 0.416667 0.556388
vt 0.500000 1.000000
vt 0.333333 0.556388
vt 0.416667 1.000000
vt 0.250000 0.556388
vt 0.333333 1.000000
vt 0.166667 0.556388
vt 0.250000 1.000000
vt 0.166667 1.000000
vt 0.042154 0.370000
vt 0.250000 0.490000
vt 0.457846 0.130000
vt 0.916667 1.000000
vt 0.916667 0.556388
vt 0.594728 0.160354
vt 0.660354 0.094728
vt 0.750000 0.429292
vt 0.660354 0.405272
vt 0.929292 0.250000
vt 0.905272 0.339646
vt 0.905272 0.160354
vt 0.839646 0.094728
vt 0.750000 0.070708
vt 0.635116 0.051016
vt 0.750000 0.060475
vt 0.655238 0.085867
vt 0.570708 0.250000
vt 0.594728 0.339646
vt 1.000000 1.000000
vt 1.000000 0.556388
vt 0.839646 0.405272
vt 0.914133 0.155238
vt 0.979767 0.250000
vt 0.939525 0.250000
vt 0.635116 0.448984
vt 0.585867 0.344762
vt 0.655237 0.414133
vt 0.844762 0.414133
vt 0.750000 0.479767
vt 0.750000 0.439525
vt 0.551016 0.135116
vt 0.585867 0.155238
vt 0.844762 0.085867
vt 0.948984 0.135116
vt 0.948984 0.364884
vt 0.914133 0.344762
vt 0.520233 0.250000
vt 0.560475 0.250000
vt 0.750000 0.020233
vt 0.918106 0.500000
vt 0.998560 0.500000
vt 0.834773 0.500000
vt 0.915227 0.500000
vt 0.751440 0.500000
vt 0.831894 0.500000
vt 0.668106 0.500000
vt 0.748560 0.500000
vt 0.584773 0.500000
vt 0.665227 0.500000
vt 0.501440 0.500000
vt 0.581894 0.500000
vt 0.418106 0.500000
vt 0.498560 0.500000
vt 0.334773 0.500000
vt 0.415227 0.500000
vt 0.331894 0.500000
vt 0.168106 0.500000
vt 0.248560 0.500000
vt 0.165227 0.500000
vt 0.001440 0.500000
vt 0.081894 0.500000
vt 0.000000 1.000000
vt 0.370000 0.457846
vt 0.457846 0.370000
vt 0.490000 0.250000
vt 0.370000 0.042154
vt 0.250000 0.010000
vt 0.130000 0.042154
vt 0.042154 0.130000
vt 0.010000 0.250000
vt 0.130000 0.457846
vt 0.551016 0.364884
vt 0.864884 0.448984
vt 0.864884 0.051016
vt 0.251440 0.500000
vt 0.084773 0.500000
vn 0.0000 1.0000 0.0000
vn -0.2588 0.0000 -0.9659
vn 0.9659 0.0000 -0.2588
vn 0.9659 0.0000 0.2588
vn 0.7071 0.0000 0.7071
vn 0.2588 0.0000 0.9659
vn -0.2588 0.0000 0.9659
vn -0.7071 0.0000 0.7071
vn -0.9659 0.0000 0.2588
vn -0.9659 0.0000 -0.2588
vn -0.7071 0.0000 -0.7071
vn 0.0000 -1.0000 0.0000
vn 0.7071 0.0000 -0.7071
vn 0.2588 0.0000 -0.9659
vn 0.1830 0.7071 -0.6830
vn 0.5000 0.7071 -0.5000
vn 0.6830 0.7071 -0.1830
vn 0.6830 0.7071 0.1830
vn 0.5000 0.7071 0.5000
vn 0.1830 0.7071 0.6830
vn -0.1830 0.7071 0.6830
vn -0.5000 0.7071 0.5000
vn -0.6830 0.7071 0.1830
vn -0.6830 0.7071 -0.1830
vn -0.5000 0.7071 -0.5000
vn -0.1830 0.7071 -0.6830
usemtl GroundFlowerBed3
s off
f 16/1/1 14/2/1 22/3/1
f 14/2/1 13/4/1 22/3/1
f 13/4/1 24/5/1 22/3/1
f 24/5/1 23/6/1 22/3/1
f 22/3/1 21/7/1 20/8/1
f 20/8/1 19/9/1 18/10/1
f 18/10/1 17/11/1 16/1/1
f 16/1/1 15/12/1 14/2/1
f 22/3/1 20/8/1 18/10/1
f 18/10/1 16/1/1 22/3/1
usemtl ConcreteFlowerBed3
f 49/13/2 12/14/2 72/15/2
f 56/16/3 3/17/3 54/18/3
f 58/19/4 4/20/4 56/16/4
f 60/21/5 5/22/5 58/19/5
f 62/23/6 6/24/6 60/21/6
f 64/25/7 7/26/7 62/23/7
f 66/27/8 8/28/8 64/25/8
f 68/29/9 9/30/9 66/27/9
f 70/31/10 10/32/10 68/29/10
f 72/15/11 11/33/11 70/31/11
f 11/34/12 1/35/12 5/36/12
f 54/18/13 2/37/13 52/38/13
f 20/8/13 41/39/13 39/40/13
f 24/5/6 26/41/6 47/42/6
f 15/12/9 31/43/9 29/44/9
f 16/1/10 33/45/10 31/43/10
f 17/11/11 35/46/11 33/45/11
f 18/10/2 37/47/2 35/46/2
f 63/48/1 38/49/1 40/50/1
f 19/9/14 39/40/14 37/47/14
f 21/7/3 43/51/3 41/39/3
f 22/3/4 45/52/4 43/51/4
f 23/6/5 47/42/5 45/52/5
f 52/38/14 1/53/14 49/54/14
f 14/2/8 29/44/8 27/55/8
f 34/56/1 55/57/1 32/58/1
f 71/59/1 46/60/1 48/61/1
f 28/62/1 50/63/1 25/64/1
f 65/65/1 40/50/1 42/66/1
f 36/67/1 57/68/1 34/56/1
f 25/64/1 71/59/1 48/61/1
f 53/69/1 28/62/1 30/70/1
f 67/71/1 42/66/1 44/72/1
f 61/73/1 36/67/1 38/49/1
f 55/57/1 30/70/1 32/58/1
f 46/60/1 67/71/1 44/72/1
f 51/74/15 49/54/15 50/75/15
f 53/76/16 52/38/16 51/77/16
f 55/78/17 54/18/17 53/79/17
f 57/80/18 56/16/18 55/81/18
f 59/82/19 58/19/19 57/83/19
f 61/84/20 60/21/20 59/85/20
f 63/86/21 62/23/21 61/87/21
f 65/88/22 64/25/22 63/89/22
f 65/90/23 68/29/23 66/27/23
f 69/91/24 68/29/24 67/92/24
f 69/93/25 72/15/25 70/31/25
f 50/94/26 72/15/26 71/95/26
f 27/55/21 25/64/21 26/41/21
f 29/44/22 28/62/22 27/55/22
f 31/43/23 30/70/23 29/44/23
f 33/45/24 32/58/24 31/43/24
f 35/46/25 34/56/25 33/45/25
f 37/47/26 36/67/26 35/46/26
f 39/40/15 38/49/15 37/47/15
f 41/39/16 40/50/16 39/40/16
f 41/39/17 44/72/17 42/66/17
f 43/51/18 46/60/18 44/72/18
f 45/52/19 48/61/19 46/60/19
f 26/41/20 48/61/20 47/42/20
f 13/4/7 27/55/7 26/41/7
f 49/13/2 1/96/2 12/14/2
f 56/16/3 4/20/3 3/17/3
f 58/19/4 5/22/4 4/20/4
f 60/21/5 6/24/5 5/22/5
f 62/23/6 7/26/6 6/24/6
f 64/25/7 8/28/7 7/26/7
f 66/27/8 9/30/8 8/28/8
f 68/29/9 10/32/9 9/30/9
f 70/31/10 11/33/10 10/32/10
f 72/15/11 12/14/11 11/33/11
f 1/35/12 2/97/12 3/98/12
f 3/98/12 4/99/12 1/35/12
f 4/99/12 5/36/12 1/35/12
f 5/36/12 6/100/12 7/101/12
f 7/101/12 8/102/12 5/36/12
f 8/102/12 9/103/12 5/36/12
f 9/103/12 10/104/12 11/34/12
f 11/34/12 12/105/12 1/35/12
f 9/103/12 11/34/12 5/36/12
f 54/18/13 3/17/13 2/37/13
f 20/8/13 21/7/13 41/39/13
f 24/5/6 13/4/6 26/41/6
f 15/12/9 16/1/9 31/43/9
f 16/1/10 17/11/10 33/45/10
f 17/11/11 18/10/11 35/46/11
f 18/10/2 19/9/2 37/47/2
f 63/48/1 61/73/1 38/49/1
f 19/9/14 20/8/14 39/40/14
f 21/7/3 22/3/3 43/51/3
f 22/3/4 23/6/4 45/52/4
f 23/6/5 24/5/5 47/42/5
f 52/38/14 2/37/14 1/53/14
f 14/2/8 15/12/8 29/44/8
f 34/56/1 57/68/1 55/57/1
f 71/59/1 69/106/1 46/60/1
f 28/62/1 51/107/1 50/63/1
f 65/65/1 63/48/1 40/50/1
f 36/67/1 59/108/1 57/68/1
f 25/64/1 50/63/1 71/59/1
f 53/69/1 51/107/1 28/62/1
f 67/71/1 65/65/1 42/66/1
f 61/73/1 59/108/1 36/67/1
f 55/57/1 53/69/1 30/70/1
f 46/60/1 69/106/1 67/71/1
f 51/74/15 52/38/15 49/54/15
f 53/76/16 54/18/16 52/38/16
f 55/78/17 56/16/17 54/18/17
f 57/80/18 58/19/18 56/16/18
f 59/82/19 60/21/19 58/19/19
f 61/84/20 62/23/20 60/21/20
f 63/86/21 64/25/21 62/23/21
f 65/88/22 66/27/22 64/25/22
f 65/90/23 67/109/23 68/29/23
f 69/91/24 70/31/24 68/29/24
f 69/93/25 71/110/25 72/15/25
f 50/94/26 49/13/26 72/15/26
f 27/55/21 28/62/21 25/64/21
f 29/44/22 30/70/22 28/62/22
f 31/43/23 32/58/23 30/70/23
f 33/45/24 34/56/24 32/58/24
f 35/46/25 36/67/25 34/56/25
f 37/47/26 38/49/26 36/67/26
f 39/40/15 40/50/15 38/49/15
f 41/39/16 42/66/16 40/50/16
f 41/39/17 43/51/17 44/72/17
f 43/51/18 45/52/18 46/60/18
f 45/52/19 47/42/19 48/61/19
f 26/41/20 25/64/20 48/61/20
f 13/4/7 14/2/7 27/55/7
