# Blender v2.93.8 OBJ File: 'FlowerBed6.blend'
# www.blender.org
mtllib FlowerBed6.mtl
o FlowerBed6_Cylinder.016
v 2.553056 -0.224184 1.830836
v 1.136217 -0.224184 -1.510417
v 2.270534 -0.224184 -0.396046
v 2.579942 -0.224184 0.717395
v -2.553056 -0.224184 1.830836
v -0.000000 -0.224184 -1.649060
v -1.136217 -0.224184 -1.510417
v -2.270534 -0.224184 -0.396046
v -2.579942 -0.224184 0.717395
v -2.248179 -0.090438 0.758561
v -1.975638 -0.090438 -0.222208
v -0.984631 -0.090438 -1.195789
v -0.000000 -0.090438 -1.315935
v -2.230272 -0.090438 1.500164
v 2.248179 -0.090438 0.758561
v 1.975638 -0.090438 -0.222208
v 0.984631 -0.090438 -1.195789
v 2.230272 -0.090438 1.500164
v -2.301185 0.087933 1.572810
v -2.230272 0.069378 1.500164
v -1.975638 0.069378 -0.222208
v -2.040425 0.087933 -0.260399
v -0.984631 0.069378 -1.195789
v -1.017934 0.087933 -1.264910
v -2.321065 0.087933 0.749518
v -2.248179 0.069378 0.758561
v -0.000000 0.069378 -1.315935
v -0.000000 0.087933 -1.389120
v 2.301185 0.087933 1.572810
v 2.230272 0.069378 1.500164
v 2.040425 0.087933 -0.260399
v 1.975638 0.069378 -0.222208
v 1.017934 0.087933 -1.264910
v 0.984631 0.069378 -1.195789
v 2.248179 0.069378 0.758561
v 2.321065 0.087933 0.749518
v -2.579942 0.069378 0.717395
v -2.507056 0.087933 0.726439
v -2.205747 0.087933 -0.357855
v -2.270534 0.069378 -0.396046
v -1.102915 0.087933 -1.441295
v -1.136217 0.069378 -1.510417
v -0.000000 0.087933 -1.575875
v -0.000000 0.069378 -1.649060
v -2.553056 0.069378 1.830836
v -2.482142 0.087933 1.758190
v 2.507056 0.087933 0.726439
v 2.579942 0.069378 0.717395
v 2.270534 0.069378 -0.396046
v 2.205747 0.087933 -0.357855
v 1.136217 0.069378 -1.510417
v 1.102915 0.087933 -1.441295
v 2.553056 0.069378 1.830836
v 2.482142 0.087933 1.758190
vt 0.166799 0.500000
vt 0.083345 0.500000
vt 0.041125 0.500000
vt 0.083345 0.500000
vt 0.166799 0.500000
vt 0.191436 0.500000
vt 0.206215 0.500000
vt 0.206215 0.500000
vt 0.191436 0.500000
vt 0.214286 0.500000
vt 0.214286 0.500000
vt 0.214286 0.500000
vt 0.071428 0.500000
vt 0.174377 0.500000
vt 0.174377 0.500000
vt 0.194331 0.500000
vt 0.214286 0.500000
vt 0.083345 0.500000
vt 0.041125 0.500000
vt 0.194331 0.500000
vt 0.194331 0.500000
vt -0.000000 0.500000
vt 0.194331 0.500000
vt -0.000000 0.500000
vt 0.071428 0.500000
vt 0.174377 0.500000
vt 0.071428 0.500000
vt 0.071428 0.500000
vt 0.174377 0.500000
vt 0.166799 0.500000
vt 0.168464 0.500000
vt 0.193695 0.500000
vt 0.192072 0.500000
vt 0.083345 0.500000
vt 0.206215 0.500000
vt 0.206215 0.500000
vt 0.166799 0.500000
vt 0.191436 0.500000
vt 0.191436 0.500000
vt 0.207988 0.500000
vt 0.193695 0.500000
vt 0.192072 0.500000
vt 0.080727 0.500000
vt 0.172712 0.500000
vt 0.074046 0.500000
vt 0.080727 0.500000
vt 0.009035 0.500000
vt 0.074046 0.500000
vt 0.032090 0.500000
vt 0.207988 0.500000
vt 0.212513 0.500000
vt 0.172712 0.500000
vt 0.212513 0.500000
vt 0.168464 0.500000
vn 0.0000 1.0000 0.0000
vn 0.0000 0.0000 1.0000
vn -0.7008 0.0000 -0.7134
vn -0.9997 0.0000 0.0241
vn 0.1211 0.0000 0.9926
vn 0.0000 -1.0000 0.0000
vn 0.9997 0.0000 0.0241
vn -0.1211 0.0000 -0.9926
vn 0.7008 0.0000 -0.7134
vn 0.1211 0.0000 -0.9926
vn 0.9635 0.0000 -0.2677
vn 0.7008 0.0000 0.7134
vn -0.1211 0.0000 0.9926
vn 0.0000 0.0000 -1.0000
vn -0.7008 0.0000 0.7134
vn -0.9635 0.0000 -0.2677
vn -0.9997 0.0000 -0.0241
vn 0.9635 0.0000 0.2677
vn -0.9635 0.0000 0.2677
vn -0.2384 0.9689 -0.0663
vn -0.1734 0.9689 -0.1765
vn -0.0300 0.9689 -0.2457
vn -0.2474 0.9689 0.0060
vn 0.2384 0.9689 -0.0663
vn 0.1734 0.9689 -0.1765
vn 0.0300 0.9689 -0.2457
vn 0.0000 0.9689 0.2475
vn 0.2474 0.9689 0.0060
vn 0.2384 0.9689 0.0663
vn 0.1734 0.9689 0.1765
vn 0.0300 0.9689 0.2457
vn 0.2474 0.9689 -0.0060
vn -0.2384 0.9689 0.0663
vn -0.1734 0.9689 0.1765
vn -0.0300 0.9689 0.2457
vn 0.0000 0.9689 -0.2475
vn -0.2474 0.9689 -0.0060
vn 0.9997 0.0000 -0.0241
usemtl GroundFlowerBed6
s off
f 16/1/1 17/2/1 13/3/1
f 12/4/1 11/5/1 13/3/1
f 11/5/1 10/6/1 13/3/1
f 10/6/1 14/7/1 18/8/1
f 18/8/1 15/9/1 10/6/1
f 15/9/1 16/1/1 13/3/1
f 10/6/1 15/9/1 13/3/1
usemtl ConcreteFlowerBed6
f 45/10/2 1/11/2 53/12/2
f 42/13/3 8/14/3 40/15/3
f 37/16/4 5/17/4 45/10/4
f 23/18/5 13/3/5 27/19/5
f 4/20/6 9/21/6 6/22/6
f 53/12/7 4/20/7 48/23/7
f 44/24/8 7/25/8 42/13/8
f 49/26/9 2/27/9 51/28/9
f 51/28/10 6/22/10 44/24/10
f 48/23/11 3/29/11 49/26/11
f 21/30/12 12/4/12 23/18/12
f 22/31/1 38/32/1 25/33/1
f 27/19/13 17/2/13 34/34/13
f 30/35/14 14/7/14 20/36/14
f 34/34/15 16/1/15 32/37/15
f 40/15/16 9/21/16 37/16/16
f 35/38/17 18/8/17 30/35/17
f 26/39/18 11/5/18 21/30/18
f 32/37/19 15/9/19 35/38/19
f 29/40/1 47/41/1 36/42/1
f 33/43/1 50/44/1 52/45/1
f 24/46/1 43/47/1 41/48/1
f 33/43/1 43/47/1 28/49/1
f 19/50/1 38/32/1 46/51/1
f 24/46/1 39/52/1 22/31/1
f 19/50/1 54/53/1 29/40/1
f 31/54/1 47/41/1 50/44/1
f 39/52/20 37/16/20 38/32/20
f 41/48/21 40/15/21 39/52/21
f 41/48/22 44/24/22 42/13/22
f 46/51/23 37/16/23 45/10/23
f 48/23/24 50/44/24 47/41/24
f 49/26/25 52/45/25 50/44/25
f 44/24/26 52/45/26 51/28/26
f 46/51/27 53/12/27 54/53/27
f 48/23/28 54/53/28 53/12/28
f 21/30/29 25/33/29 26/39/29
f 23/18/30 22/31/30 21/30/30
f 23/18/31 28/49/31 24/46/31
f 20/36/32 25/33/32 19/50/32
f 36/42/33 32/37/33 35/38/33
f 31/54/34 34/34/34 32/37/34
f 28/49/35 34/34/35 33/43/35
f 20/36/36 29/40/36 30/35/36
f 36/42/37 30/35/37 29/40/37
f 20/36/38 10/6/38 26/39/38
f 45/10/2 5/17/2 1/11/2
f 42/13/3 7/25/3 8/14/3
f 37/16/4 9/21/4 5/17/4
f 23/18/5 12/4/5 13/3/5
f 9/21/6 8/14/6 6/22/6
f 8/14/6 7/25/6 6/22/6
f 6/22/6 2/27/6 3/29/6
f 4/20/6 6/22/6 3/29/6
f 4/20/6 1/11/6 5/17/6
f 5/17/6 9/21/6 4/20/6
f 53/12/7 1/11/7 4/20/7
f 44/24/8 6/22/8 7/25/8
f 49/26/9 3/29/9 2/27/9
f 51/28/10 2/27/10 6/22/10
f 48/23/11 4/20/11 3/29/11
f 21/30/12 11/5/12 12/4/12
f 22/31/1 39/52/1 38/32/1
f 27/19/13 13/3/13 17/2/13
f 30/35/14 18/8/14 14/7/14
f 34/34/15 17/2/15 16/1/15
f 40/15/16 8/14/16 9/21/16
f 35/38/17 15/9/17 18/8/17
f 26/39/18 10/6/18 11/5/18
f 32/37/19 16/1/19 15/9/19
f 29/40/1 54/53/1 47/41/1
f 33/43/1 31/54/1 50/44/1
f 24/46/1 28/49/1 43/47/1
f 33/43/1 52/45/1 43/47/1
f 19/50/1 25/33/1 38/32/1
f 24/46/1 41/48/1 39/52/1
f 19/50/1 46/51/1 54/53/1
f 31/54/1 36/42/1 47/41/1
f 39/52/20 40/15/20 37/16/20
f 41/48/21 42/13/21 40/15/21
f 41/48/22 43/47/22 44/24/22
f 46/51/23 38/32/23 37/16/23
f 48/23/24 49/26/24 50/44/24
f 49/26/25 51/28/25 52/45/25
f 44/24/26 43/47/26 52/45/26
f 46/51/27 45/10/27 53/12/27
f 48/23/28 47/41/28 54/53/28
f 21/30/29 22/31/29 25/33/29
f 23/18/30 24/46/30 22/31/30
f 23/18/31 27/19/31 28/49/31
f 20/36/32 26/39/32 25/33/32
f 36/42/33 31/54/33 32/37/33
f 31/54/34 33/43/34 34/34/34
f 28/49/35 27/19/35 34/34/35
f 20/36/36 19/50/36 29/40/36
f 36/42/37 35/38/37 30/35/37
f 20/36/38 14/7/38 10/6/38
