# Blender v2.93.8 OBJ File: 'Magazine1.blend'
# www.blender.org
mtllib Magazine1.mtl
o Magazine1_Cube.002
v -0.182375 -0.010459 0.257053
v -0.182375 0.010459 0.257053
v -0.182375 -0.010459 -0.257053
v -0.182375 0.010459 -0.257053
v 0.182375 -0.010459 0.257053
v 0.182375 0.010459 0.257053
v 0.182375 -0.010459 -0.257053
v 0.182375 0.010459 -0.257053
vt 0.625000 0.000000
vt 0.375000 0.250000
vt 0.375000 0.000000
vt 0.375000 0.500000
vt 0.125000 0.750000
vt 0.125000 0.500000
vt 0.875000 0.500000
vt 0.625000 0.750000
vt 0.625000 0.500000
vt 0.625000 0.250000
vt 0.375000 0.750000
vt 0.875000 0.750000
vt 0.375000 1.000000
vt 0.625000 1.000000
vn -1.0000 0.0000 0.0000
vn 0.0000 -1.0000 0.0000
vn 0.0000 1.0000 0.0000
vn 0.0000 0.0000 -1.0000
vn 1.0000 0.0000 0.0000
vn 0.0000 0.0000 1.0000
usemtl CoverMagazine1
s off
f 2/1/1 3/2/1 1/3/1
f 7/4/2 1/5/2 3/6/2
f 4/7/3 6/8/3 8/9/3
f 2/1/1 4/10/1 3/2/1
f 7/4/2 5/11/2 1/5/2
f 4/7/3 2/12/3 6/8/3
usemtl PaperMagazine1
f 4/10/4 7/4/4 3/2/4
f 8/9/5 5/11/5 7/4/5
f 6/8/6 1/13/6 5/11/6
f 4/10/4 8/9/4 7/4/4
f 8/9/5 6/8/5 5/11/5
f 6/8/6 2/14/6 1/13/6
