# Blender v2.93.8 OBJ File: 'Plate1.blend'
# www.blender.org
mtllib Plate1.mtl
o Plate1_Cylinder.009
v -0.000000 -0.041354 -0.196543
v 0.138977 -0.041354 -0.138977
v 0.196543 -0.041354 0.000000
v 0.138977 -0.041354 0.138977
v -0.000000 -0.041354 0.196543
v -0.138977 -0.041354 0.138977
v -0.196543 -0.041354 -0.000000
v -0.138977 -0.041354 -0.138977
v 0.227407 0.009904 -0.227407
v -0.000000 0.009904 -0.321603
v 0.321603 0.009904 0.000000
v 0.227407 0.009904 0.227407
v -0.000000 0.009904 0.321603
v -0.227407 0.009904 0.227407
v -0.321603 0.009904 -0.000000
v -0.227407 0.009904 -0.227407
v -0.000000 0.009904 -0.274165
v 0.193864 0.009904 -0.193864
v 0.274165 0.009904 0.000000
v 0.193864 0.009904 0.193864
v -0.000000 0.009904 0.274165
v -0.193864 0.009904 0.193864
v -0.274165 0.009904 -0.000000
v -0.193864 0.009904 -0.193864
v 0.227407 0.027750 -0.227407
v -0.000000 0.027750 -0.321603
v 0.321603 0.027750 0.000000
v 0.227407 0.027750 0.227407
v -0.000000 0.027750 0.321603
v -0.227407 0.027750 0.227407
v -0.321603 0.027750 -0.000000
v -0.227407 0.027750 -0.227407
v 0.142080 -0.033954 -0.142080
v 0.000000 -0.033954 -0.200931
v 0.200931 -0.033954 0.000000
v 0.142080 -0.033954 0.142080
v -0.000000 -0.033954 0.200931
v -0.142080 -0.033954 0.142080
v -0.200931 -0.033954 -0.000000
v -0.142080 -0.033954 -0.142080
v -0.000000 0.027750 -0.274165
v 0.193864 0.027750 -0.193864
v 0.274165 0.027750 0.000000
v 0.193864 0.027750 0.193864
v -0.000000 0.027750 0.274165
v -0.193864 0.027750 0.193864
v -0.274165 0.027750 -0.000000
v -0.193864 0.027750 -0.193864
vt 0.250000 0.338174
vt 0.338174 0.250000
vt 0.250000 0.161826
vt 0.250000 0.490000
vt 0.366027 0.366027
vt 0.250000 0.414087
vt 0.490000 0.250000
vt 0.414087 0.250000
vt 0.366027 0.133973
vt 0.419706 0.080294
vt 0.250000 0.085913
vt 0.250000 0.010000
vt 0.133973 0.133973
vt 0.010000 0.250000
vt 0.085913 0.250000
vt 0.080294 0.419706
vt 0.133973 0.366027
vt 0.187651 0.312349
vt 0.161826 0.250000
vt 0.187651 0.187651
vt 0.312349 0.187651
vt 0.312349 0.312349
vt 0.338174 0.250000
vt 0.250000 0.338174
vt 0.161826 0.250000
vt 0.366027 0.366027
vt 0.250000 0.490000
vt 0.250000 0.414087
vt 0.414087 0.250000
vt 0.419706 0.419706
vt 0.366027 0.133973
vt 0.490000 0.250000
vt 0.250000 0.085913
vt 0.419706 0.080294
vt 0.133973 0.133973
vt 0.250000 0.010000
vt 0.010000 0.250000
vt 0.080294 0.080294
vt 0.133973 0.366027
vt 0.085913 0.250000
vt 0.080294 0.419706
vt 0.187651 0.312349
vt 0.187651 0.187651
vt 0.250000 0.161826
vt 0.312349 0.187651
vt 0.312349 0.312349
vt 0.080294 0.080294
vt 0.419706 0.419706
vn 0.0000 -1.0000 0.0000
vn -0.2225 -0.8135 -0.5372
vn -0.5372 -0.8135 -0.2225
vn -0.5372 -0.8135 0.2225
vn -0.2225 -0.8135 0.5372
vn 0.2225 -0.8135 0.5372
vn 0.5372 -0.8135 0.2225
vn 0.5372 -0.8135 -0.2225
vn 0.2225 -0.8135 -0.5372
vn 0.0000 1.0000 0.0000
vn 0.2579 0.7389 0.6226
vn 0.6226 0.7389 0.2579
vn 0.6226 0.7389 -0.2579
vn 0.2579 0.7389 -0.6226
vn -0.2579 0.7389 -0.6226
vn -0.6226 0.7389 -0.2579
vn -0.6226 0.7389 0.2579
vn -0.3827 0.0000 0.9239
vn 0.9239 0.0000 0.3827
vn 0.3827 0.0000 -0.9239
vn -0.3827 0.0000 -0.9239
vn -0.9239 0.0000 0.3827
vn 0.3827 0.0000 0.9239
vn 0.9239 0.0000 -0.3827
vn -0.9239 0.0000 -0.3827
vn -0.2579 0.7389 0.6226
usemtl Plate1
s off
f 1/1/1 3/2/1 5/3/1
f 10/4/1 18/5/1 17/6/1
f 18/5/1 11/7/1 19/8/1
f 11/7/1 20/9/1 19/8/1
f 12/10/1 21/11/1 20/9/1
f 13/12/1 22/13/1 21/11/1
f 22/13/1 15/14/1 23/15/1
f 23/15/1 16/16/1 24/17/1
f 16/16/1 17/6/1 24/17/1
f 24/17/2 1/1/2 8/18/2
f 23/15/3 8/18/3 7/19/3
f 22/13/4 7/19/4 6/20/4
f 21/11/5 6/20/5 5/3/5
f 20/9/6 5/3/6 4/21/6
f 3/2/7 20/9/7 4/21/7
f 2/22/8 19/8/8 3/2/8
f 1/1/9 18/5/9 2/22/9
f 35/23/10 34/24/10 39/25/10
f 42/26/10 26/27/10 41/28/10
f 43/29/10 25/30/10 42/26/10
f 44/31/10 27/32/10 43/29/10
f 45/33/10 28/34/10 44/31/10
f 46/35/10 29/36/10 45/33/10
f 46/35/10 31/37/10 30/38/10
f 48/39/10 31/37/10 47/40/10
f 41/28/10 32/41/10 48/39/10
f 34/24/11 48/39/11 40/42/11
f 40/42/12 47/40/12 39/25/12
f 38/43/13 47/40/13 46/35/13
f 38/43/14 45/33/14 37/44/14
f 36/45/15 45/33/15 44/31/15
f 36/45/16 43/29/16 35/23/16
f 33/46/17 43/29/17 42/26/17
f 13/12/18 30/38/18 14/47/18
f 11/7/19 28/34/19 12/10/19
f 10/4/20 25/30/20 9/48/20
f 16/16/21 26/27/21 10/4/21
f 14/47/22 31/37/22 15/14/22
f 12/10/23 29/36/23 13/12/23
f 9/48/24 27/32/24 11/7/24
f 15/14/25 32/41/25 16/16/25
f 33/46/26 41/28/26 34/24/26
f 1/1/1 2/22/1 3/2/1
f 3/2/1 4/21/1 5/3/1
f 5/3/1 6/20/1 1/1/1
f 6/20/1 7/19/1 1/1/1
f 7/19/1 8/18/1 1/1/1
f 10/4/1 9/48/1 18/5/1
f 18/5/1 9/48/1 11/7/1
f 11/7/1 12/10/1 20/9/1
f 12/10/1 13/12/1 21/11/1
f 13/12/1 14/47/1 22/13/1
f 22/13/1 14/47/1 15/14/1
f 23/15/1 15/14/1 16/16/1
f 16/16/1 10/4/1 17/6/1
f 24/17/2 17/6/2 1/1/2
f 23/15/3 24/17/3 8/18/3
f 22/13/4 23/15/4 7/19/4
f 21/11/5 22/13/5 6/20/5
f 20/9/6 21/11/6 5/3/6
f 3/2/7 19/8/7 20/9/7
f 2/22/8 18/5/8 19/8/8
f 1/1/9 17/6/9 18/5/9
f 35/23/10 33/46/10 34/24/10
f 34/24/10 40/42/10 39/25/10
f 39/25/10 38/43/10 35/23/10
f 38/43/10 37/44/10 35/23/10
f 37/44/10 36/45/10 35/23/10
f 42/26/10 25/30/10 26/27/10
f 43/29/10 27/32/10 25/30/10
f 44/31/10 28/34/10 27/32/10
f 45/33/10 29/36/10 28/34/10
f 46/35/10 30/38/10 29/36/10
f 46/35/10 47/40/10 31/37/10
f 48/39/10 32/41/10 31/37/10
f 41/28/10 26/27/10 32/41/10
f 34/24/11 41/28/11 48/39/11
f 40/42/12 48/39/12 47/40/12
f 38/43/13 39/25/13 47/40/13
f 38/43/14 46/35/14 45/33/14
f 36/45/15 37/44/15 45/33/15
f 36/45/16 44/31/16 43/29/16
f 33/46/17 35/23/17 43/29/17
f 13/12/18 29/36/18 30/38/18
f 11/7/19 27/32/19 28/34/19
f 10/4/20 26/27/20 25/30/20
f 16/16/21 32/41/21 26/27/21
f 14/47/22 30/38/22 31/37/22
f 12/10/23 28/34/23 29/36/23
f 9/48/24 25/30/24 27/32/24
f 15/14/25 31/37/25 32/41/25
f 33/46/26 42/26/26 41/28/26
