# Blender v2.93.8 OBJ File: 'Pouf1.blend'
# www.blender.org
mtllib Pouf1.mtl
o Pouf1_Cube.038
v -0.000000 0.350301 0.364883
v -0.000000 0.379114 0.336070
v -0.000000 -0.321839 0.364883
v -0.000000 -0.350652 0.336070
v -0.000000 0.350301 -0.364883
v -0.000000 0.379114 -0.336070
v -0.000000 -0.321839 -0.364883
v -0.000000 -0.350652 -0.336070
v -0.336070 -0.350652 0.336070
v -0.336070 -0.321839 0.364883
v -0.364883 -0.321839 0.336070
v -0.336070 0.299387 0.364883
v -0.336070 0.328200 0.336070
v -0.364883 0.299387 0.336070
v -0.336070 -0.350652 -0.336070
v -0.364883 -0.321839 -0.336070
v -0.336070 -0.321839 -0.364883
v -0.336070 0.344289 -0.336070
v -0.336070 0.315476 -0.364883
v -0.364883 0.315476 -0.336070
v 0.336070 -0.350652 0.336070
v 0.364883 -0.321839 0.336070
v 0.336070 -0.321839 0.364883
v 0.336070 0.321495 0.336070
v 0.336070 0.292683 0.364883
v 0.364883 0.292683 0.336070
v 0.336070 -0.350652 -0.336070
v 0.336070 -0.321839 -0.364883
v 0.364883 -0.321839 -0.336070
v 0.336070 0.311244 -0.336070
v 0.364883 0.282431 -0.336070
v 0.336070 0.282431 -0.364883
v -0.000000 -0.350652 0.000000
v -0.336070 -0.350652 0.000000
v -0.364883 -0.321839 0.000000
v -0.336070 0.379114 0.000000
v -0.364883 0.350301 0.000000
v 0.336070 -0.350652 0.000000
v 0.364883 -0.321839 0.000000
v 0.336070 0.379114 0.000000
v 0.364883 0.350301 0.000000
v -0.000000 0.415098 0.000000
vt 0.384870 0.875000
vt 0.615129 0.990130
vt 0.384870 0.990129
vt 0.384870 0.625000
vt 0.615129 0.740130
vt 0.384870 0.740129
vt 0.250000 0.625000
vt 0.134870 0.740129
vt 0.134870 0.625000
vt 0.865130 0.625000
vt 0.750000 0.740129
vt 0.750000 0.625000
vt 0.384870 0.125000
vt 0.615129 0.240130
vt 0.384870 0.240130
vt 0.384870 0.375000
vt 0.615129 0.490130
vt 0.384870 0.490130
vt 0.134870 0.750000
vt 0.125000 0.740130
vt 0.625000 0.990130
vt 0.615130 1.000000
vt 0.134870 0.509870
vt 0.125000 0.509870
vt 0.134870 0.500000
vt 0.625000 0.259870
vt 0.625000 0.259870
vt 0.615130 0.250000
vt 0.365130 0.740130
vt 0.375000 0.740130
vt 0.365130 0.750000
vt 0.625000 0.759870
vt 0.625000 0.759870
vt 0.615130 0.750000
vt 0.365130 0.509870
vt 0.365130 0.500000
vt 0.375000 0.509870
vt 0.625000 0.509870
vt 0.625000 0.509870
vt 0.615130 0.500000
vt 0.125000 0.625000
vt 0.615130 0.000000
vt 0.384870 0.009870
vt 0.384870 0.000000
vt 0.625000 0.240130
vt 0.615129 0.125000
vt 0.625000 0.125000
vt 0.384870 0.259870
vt 0.615130 0.259870
vt 0.250000 0.500000
vt 0.250000 0.509870
vt 0.625000 0.490130
vt 0.615129 0.375000
vt 0.625000 0.375000
vt 0.384870 0.509870
vt 0.615130 0.509870
vt 0.365130 0.625000
vt 0.634870 0.740129
vt 0.615129 0.625000
vt 0.634870 0.625000
vt 0.384870 0.759870
vt 0.615130 0.759870
vt 0.250000 0.750000
vt 0.250000 0.740129
vt 0.615129 0.875000
vt 0.625000 0.875000
vt 0.750000 0.509870
vt 0.634870 0.509870
vt 0.625000 0.009870
vt 0.615130 0.009870
vt 0.865130 0.740130
vt 0.865130 0.509870
vn 0.0000 0.0000 1.0000
vn 1.0000 0.0000 0.0000
vn 0.0000 -1.0000 0.0000
vn -0.1059 0.9887 0.1059
vn -1.0000 0.0000 0.0000
vn 0.0000 0.0000 -1.0000
vn -0.5773 -0.5773 0.5774
vn -0.5774 0.5774 0.5774
vn -0.5773 -0.5773 -0.5774
vn -0.5773 0.5774 -0.5774
vn 0.5773 -0.5773 0.5774
vn 0.5774 0.5774 0.5774
vn 0.5773 -0.5773 -0.5774
vn 0.5774 0.5774 -0.5774
vn -0.7071 -0.7071 0.0000
vn -0.7071 0.0000 0.7071
vn -0.7052 0.7052 -0.0731
vn -0.7071 0.0000 -0.7071
vn 0.0000 -0.7071 -0.7071
vn 0.1414 0.7000 -0.7000
vn 0.7071 0.0000 -0.7071
vn 0.7071 -0.7071 0.0000
vn 0.7020 0.7020 0.1204
vn 0.7071 0.0000 0.7071
vn 0.0000 -0.7071 0.7071
vn -0.1065 0.7031 0.7031
vn 0.1204 0.7020 0.7020
vn -0.0731 0.7052 -0.7052
vn 0.1666 0.9718 0.1666
vn 0.1942 0.9616 -0.1942
vn 0.7000 0.7000 -0.1414
vn -0.7031 0.7031 0.1065
vn -0.1059 0.9887 -0.1059
vn -0.1481 0.9778 0.1481
vn 0.1059 0.9887 0.1059
vn 0.1059 0.9887 -0.1059
vn -0.1025 0.9894 -0.1025
usemtl Pouf1
s off
f 3/1/1 12/2/1 10/3/1
f 39/4/2 26/5/2 22/6/2
f 33/7/3 9/8/3 34/9/3
f 36/10/4 2/11/4 42/12/4
f 35/13/5 20/14/5 16/15/5
f 7/16/6 32/17/6 28/18/6
f 9/8/7 10/19/7 11/20/7
f 12/2/8 13/21/8 14/22/8
f 15/23/9 16/24/9 17/25/9
f 18/26/10 19/27/10 20/28/10
f 21/29/11 22/30/11 23/31/11
f 24/32/12 25/33/12 26/34/12
f 27/35/13 28/36/13 29/37/13
f 30/38/14 31/39/14 32/40/14
f 9/8/15 35/41/15 34/9/15
f 12/42/16 11/43/16 10/44/16
f 18/45/17 37/46/17 36/47/17
f 17/48/18 20/14/18 19/49/18
f 15/23/19 7/50/19 8/51/19
f 30/52/20 5/53/20 6/54/20
f 29/55/21 32/17/21 31/56/21
f 27/35/22 39/4/22 38/57/22
f 24/58/23 41/59/23 40/60/23
f 23/61/24 26/5/24 25/62/24
f 21/29/25 3/63/25 4/64/25
f 13/21/26 1/65/26 2/66/26
f 38/57/3 4/64/3 33/7/3
f 24/32/27 1/65/27 25/62/27
f 4/64/25 10/19/25 9/8/25
f 18/26/28 5/53/28 19/49/28
f 8/51/19 28/36/19 27/35/19
f 19/49/6 7/16/6 17/48/6
f 40/60/29 2/11/29 24/58/29
f 25/62/1 3/1/1 23/61/1
f 6/67/30 40/60/30 30/68/30
f 27/35/3 33/7/3 8/51/3
f 30/68/31 41/59/31 31/56/31
f 38/57/22 22/6/22 21/29/22
f 13/69/32 37/46/32 14/70/32
f 34/9/15 16/24/15 15/23/15
f 14/70/5 35/13/5 11/43/5
f 6/67/33 36/10/33 42/12/33
f 8/51/3 34/9/3 15/23/3
f 31/56/2 39/4/2 29/55/2
f 3/1/1 1/65/1 12/2/1
f 39/4/2 41/59/2 26/5/2
f 33/7/3 4/64/3 9/8/3
f 36/10/34 13/71/34 2/11/34
f 35/13/5 37/46/5 20/14/5
f 7/16/6 5/53/6 32/17/6
f 9/8/15 11/20/15 35/41/15
f 12/42/16 14/70/16 11/43/16
f 18/45/17 20/14/17 37/46/17
f 17/48/18 16/15/18 20/14/18
f 15/23/19 17/25/19 7/50/19
f 30/52/20 32/17/20 5/53/20
f 29/55/21 28/18/21 32/17/21
f 27/35/22 29/55/22 39/4/22
f 24/58/23 26/5/23 41/59/23
f 23/61/24 22/6/24 26/5/24
f 21/29/25 23/31/25 3/63/25
f 13/21/26 12/2/26 1/65/26
f 38/57/3 21/29/3 4/64/3
f 24/32/27 2/66/27 1/65/27
f 4/64/25 3/63/25 10/19/25
f 18/26/28 6/54/28 5/53/28
f 8/51/19 7/50/19 28/36/19
f 19/49/6 5/53/6 7/16/6
f 40/60/35 42/12/35 2/11/35
f 25/62/1 1/65/1 3/1/1
f 6/67/36 42/12/36 40/60/36
f 27/35/3 38/57/3 33/7/3
f 30/68/31 40/60/31 41/59/31
f 38/57/22 39/4/22 22/6/22
f 13/69/32 36/47/32 37/46/32
f 34/9/15 35/41/15 16/24/15
f 14/70/5 37/46/5 35/13/5
f 6/67/37 18/72/37 36/10/37
f 8/51/3 33/7/3 34/9/3
f 31/56/2 41/59/2 39/4/2
