# Blender v2.93.8 OBJ File: 'Rock2.blend'
# www.blender.org
mtllib Rock2.mtl
o Rock2_Cube.058
v -1.198241 -0.342481 0.861438
v -1.331562 0.640188 0.861438
v -1.125499 -0.440541 -1.241150
v -1.125499 0.003080 -1.258957
v 0.785273 -0.482922 0.861438
v 0.930284 0.741662 0.861438
v 1.462785 -0.112422 -0.488858
v 1.607795 0.322265 -0.488858
v -0.678470 -0.504805 -0.216974
v -1.411341 -0.024659 1.010843
v -1.238851 0.582686 0.179648
v -1.196567 -0.164442 -1.428350
v -0.110705 -0.519777 -1.247652
v 0.195164 0.174958 -1.416585
v 1.678863 0.142754 -0.638263
v 0.790815 -0.540485 0.179648
v 1.001351 0.907754 0.179648
v 1.001351 0.100548 1.010843
v -0.110705 -0.519777 1.010842
v 0.195164 0.532845 1.010842
v -1.394738 -0.196822 0.179648
v 0.261001 -0.230320 -1.592390
v 1.150494 -0.080178 0.179648
v 0.261001 -0.230320 1.324382
v -0.283093 -0.653230 0.126647
v -0.116072 0.894444 0.179648
vt 0.375000 0.000000
vt 0.500000 0.125000
vt 0.375000 0.125000
vt 0.500000 0.000000
vt 0.625000 0.125000
vt 0.625000 0.250000
vt 0.500000 0.250000
vt 0.375000 0.250000
vt 0.375000 0.375000
vt 0.500000 0.375000
vt 0.625000 0.375000
vt 0.500000 0.500000
vt 0.375000 0.500000
vt 0.500000 0.625000
vt 0.375000 0.625000
vt 0.625000 0.500000
vt 0.625000 0.750000
vt 0.500000 0.750000
vt 0.375000 0.750000
vt 0.500000 0.875000
vt 0.375000 0.875000
vt 0.625000 0.875000
vt 0.500000 1.000000
vt 0.375000 1.000000
vt 0.250000 0.500000
vt 0.125000 0.625000
vt 0.125000 0.500000
vt 0.250000 0.625000
vt 0.250000 0.750000
vt 0.125000 0.750000
vt 0.750000 0.500000
vt 0.625000 0.625000
vt 0.875000 0.500000
vt 0.750000 0.625000
vt 0.875000 0.750000
vt 0.750000 0.750000
vt 0.625000 0.000000
vt 0.625000 1.000000
vt 0.875000 0.625000
vn -0.4264 -0.9018 -0.0698
vn -0.9788 0.1957 -0.0601
vn -0.8764 0.4714 -0.0985
vn -0.3490 -0.9324 0.0938
vn -0.0497 -0.5692 -0.8207
vn -0.0454 0.7198 -0.6927
vn 0.4293 0.4172 -0.8010
vn 0.3792 -0.8682 -0.3202
vn 0.7322 -0.5721 0.3696
vn 0.8479 -0.0980 0.5210
vn 0.9792 0.1423 0.1448
vn 0.7866 -0.6147 0.0583
vn 0.1304 -0.8008 0.5846
vn 0.2075 0.3870 0.8984
vn -0.1275 0.3675 0.9212
vn -0.1991 -0.5231 0.8287
vn -0.0780 -0.9965 -0.0285
vn 0.1081 -0.9907 -0.0826
vn 0.0972 -0.9867 0.1300
vn -0.3360 -0.9417 -0.0202
vn 0.2445 0.8285 -0.5038
vn -0.1669 0.8863 -0.4320
vn 0.0265 0.9203 0.3904
vn -0.0116 0.9718 0.2355
vn -0.8022 -0.5876 0.1057
vn -0.9862 0.0866 -0.1414
vn -0.9688 0.1937 -0.1544
vn -0.9380 -0.3243 -0.1221
vn -0.1111 -0.6989 -0.7066
vn -0.1575 0.3713 -0.9150
vn 0.3533 0.6771 -0.6455
vn 0.5107 -0.7134 -0.4799
vn 0.8020 -0.4471 0.3962
vn 0.7849 0.1185 0.6082
vn 0.9793 0.1478 0.1381
vn 0.8873 -0.3911 0.2443
vn 0.5003 -0.3840 0.7761
vn 0.1279 0.2385 0.9627
vn -0.0790 0.2276 0.9706
vn -0.2185 -0.5741 0.7891
vn -0.2518 -0.9597 -0.1248
vn 0.3473 -0.9084 -0.2326
vn 0.0550 -0.9949 0.0844
vn -0.1825 -0.9663 0.1814
vn -0.0108 0.9108 -0.4127
vn -0.2476 0.8917 -0.3788
vn -0.2657 0.9569 -0.1168
vn -0.1603 0.8818 0.4436
usemtl Rock2
s off
f 1/1/1 21/2/1 9/3/1
f 10/4/2 11/5/2 21/2/2
f 21/2/3 4/6/3 12/7/3
f 21/2/4 3/8/4 9/3/4
f 12/7/5 13/9/5 3/8/5
f 4/6/6 22/10/6 12/7/6
f 14/11/7 15/12/7 22/10/7
f 22/10/8 7/13/8 13/9/8
f 7/13/9 23/14/9 16/15/9
f 8/16/10 23/14/10 15/12/10
f 23/14/11 6/17/11 18/18/11
f 23/14/12 5/19/12 16/15/12
f 5/19/13 24/20/13 19/21/13
f 18/18/14 20/22/14 24/20/14
f 20/22/15 10/23/15 24/20/15
f 19/21/16 10/23/16 1/24/16
f 13/25/17 9/26/17 3/27/17
f 13/25/18 16/15/18 25/28/18
f 16/15/19 19/29/19 25/28/19
f 25/28/20 1/30/20 9/26/20
f 14/31/21 17/32/21 8/16/21
f 4/33/22 26/34/22 14/31/22
f 26/34/23 2/35/23 20/36/23
f 26/34/24 6/17/24 17/32/24
f 1/1/25 10/4/25 21/2/25
f 10/4/26 2/37/26 11/5/26
f 21/2/27 11/5/27 4/6/27
f 21/2/28 12/7/28 3/8/28
f 12/7/29 22/10/29 13/9/29
f 4/6/30 14/11/30 22/10/30
f 14/11/31 8/16/31 15/12/31
f 22/10/32 15/12/32 7/13/32
f 7/13/33 15/12/33 23/14/33
f 8/16/34 17/32/34 23/14/34
f 23/14/35 17/32/35 6/17/35
f 23/14/36 18/18/36 5/19/36
f 5/19/37 18/18/37 24/20/37
f 18/18/38 6/17/38 20/22/38
f 20/22/39 2/38/39 10/23/39
f 19/21/40 24/20/40 10/23/40
f 13/25/41 25/28/41 9/26/41
f 13/25/42 7/13/42 16/15/42
f 16/15/43 5/19/43 19/29/43
f 25/28/44 19/29/44 1/30/44
f 14/31/45 26/34/45 17/32/45
f 4/33/46 11/39/46 26/34/46
f 26/34/47 11/39/47 2/35/47
f 26/34/48 20/36/48 6/17/48
