# Blender v2.93.8 OBJ File: 'Rock3.blend'
# www.blender.org
mtllib Rock3.mtl
o Rock3_Cube.060
v -0.791599 -0.352108 0.483847
v -1.314429 0.144190 0.483847
v -0.748390 -0.165112 -0.765115
v -1.048768 0.439768 -0.892532
v 0.785065 -0.548229 0.788799
v 1.142611 0.380428 0.788799
v 0.896577 -0.645426 -0.697202
v 1.128682 0.346330 -0.568782
v -0.482849 -0.448530 -0.185624
v -0.918183 -0.163318 0.572595
v -1.230048 0.503598 0.078856
v -1.088038 0.108895 -1.031163
v -0.145589 -0.457424 -0.978877
v 0.075114 0.912107 -1.103783
v 0.881576 -0.150761 -0.955480
v 1.007868 -0.469724 0.078856
v 0.940160 0.697724 0.075167
v 0.913418 -0.201640 0.877547
v -0.145589 -0.457424 1.226930
v 0.075114 0.641863 1.226930
v -0.908321 -0.265585 0.078856
v 0.135035 0.266545 -1.233769
v 1.221522 -0.196297 0.078856
v 0.075208 -0.285483 1.458754
v -0.247990 -0.536697 0.037251
v -0.208156 0.902310 0.076438
vt 0.375000 0.000000
vt 0.500000 0.125000
vt 0.375000 0.125000
vt 0.625000 0.000000
vt 0.500000 0.000000
vt 0.625000 0.250000
vt 0.500000 0.250000
vt 0.375000 0.250000
vt 0.500000 0.375000
vt 0.375000 0.375000
vt 0.625000 0.500000
vt 0.500000 0.500000
vt 0.375000 0.500000
vt 0.500000 0.625000
vt 0.375000 0.625000
vt 0.625000 0.750000
vt 0.500000 0.750000
vt 0.375000 0.750000
vt 0.500000 0.875000
vt 0.375000 0.875000
vt 0.625000 0.875000
vt 0.500000 1.000000
vt 0.375000 1.000000
vt 0.250000 0.500000
vt 0.125000 0.625000
vt 0.125000 0.500000
vt 0.250000 0.625000
vt 0.250000 0.750000
vt 0.125000 0.750000
vt 0.750000 0.500000
vt 0.625000 0.625000
vt 0.875000 0.500000
vt 0.750000 0.625000
vt 0.875000 0.750000
vt 0.750000 0.750000
vt 0.625000 0.125000
vt 0.625000 0.375000
vt 0.625000 1.000000
vt 0.875000 0.625000
vn -0.4297 -0.9004 -0.0685
vn -0.6267 -0.7654 0.1460
vn -0.9838 0.0438 0.1741
vn -0.4867 -0.8519 -0.1936
vn -0.3990 -0.1630 -0.9023
vn -0.1997 0.3987 -0.8951
vn 0.4974 0.3650 -0.7870
vn 0.1554 -0.4535 -0.8776
vn 0.7877 -0.6155 0.0264
vn 0.9247 -0.2159 -0.3134
vn 0.8910 -0.2988 0.3417
vn 0.8900 -0.3901 0.2362
vn 0.1488 -0.8568 0.4937
vn 0.5441 0.2035 0.8140
vn -0.6412 0.1860 0.7445
vn -0.6261 -0.6335 0.4546
vn -0.4832 -0.8533 -0.1959
vn -0.1526 -0.9840 -0.0921
vn -0.0633 -0.9954 0.0718
vn -0.3355 -0.9419 -0.0191
vn 0.5574 0.7865 -0.2660
vn -0.4000 0.9122 -0.0884
vn -0.4606 0.8345 0.3023
vn 0.3411 0.8911 0.2994
vn -0.8022 -0.5876 0.1057
vn -0.8136 -0.3403 -0.4715
vn -0.9128 -0.3818 -0.1453
vn -0.5174 -0.8327 -0.1972
vn -0.0245 -0.7119 -0.7019
vn -0.2501 0.1688 -0.9534
vn 0.5313 0.2143 -0.8196
vn 0.1327 -0.3745 -0.9177
vn 0.9394 -0.1358 -0.3147
vn 0.9475 0.2987 0.1144
vn 0.9452 0.2969 -0.1361
vn 0.7548 -0.5898 0.2872
vn 0.5503 -0.3925 0.7370
vn 0.3781 -0.0077 0.9257
vn -0.3881 -0.2436 0.8889
vn -0.6689 -0.1282 0.7322
vn -0.2638 -0.9592 -0.1014
vn 0.0449 -0.9757 0.2145
vn 0.0561 -0.9941 -0.0923
vn -0.2561 -0.9628 0.0862
vn 0.1752 0.9832 0.0502
vn -0.3608 0.9238 -0.1280
vn -0.2893 0.7451 0.6010
vn 0.1728 0.9690 0.1768
usemtl Rock3
s off
f 1/1/1 21/2/1 9/3/1
f 2/4/2 21/2/2 10/5/2
f 21/2/3 4/6/3 12/7/3
f 21/2/4 3/8/4 9/3/4
f 3/8/5 22/9/5 13/10/5
f 4/6/6 22/9/6 12/7/6
f 22/9/7 8/11/7 15/12/7
f 13/10/8 15/12/8 7/13/8
f 7/13/9 23/14/9 16/15/9
f 8/11/10 23/14/10 15/12/10
f 23/14/11 6/16/11 18/17/11
f 16/15/12 18/17/12 5/18/12
f 5/18/13 24/19/13 19/20/13
f 18/17/14 20/21/14 24/19/14
f 20/21/15 10/22/15 24/19/15
f 19/20/16 10/22/16 1/23/16
f 13/24/17 9/25/17 3/26/17
f 7/13/18 25/27/18 13/24/18
f 25/27/19 5/18/19 19/28/19
f 25/27/20 1/29/20 9/25/20
f 14/30/21 17/31/21 8/11/21
f 4/32/22 26/33/22 14/30/22
f 26/33/23 2/34/23 20/35/23
f 17/31/24 20/35/24 6/16/24
f 1/1/25 10/5/25 21/2/25
f 2/4/26 11/36/26 21/2/26
f 21/2/27 11/36/27 4/6/27
f 21/2/28 12/7/28 3/8/28
f 3/8/29 12/7/29 22/9/29
f 4/6/30 14/37/30 22/9/30
f 22/9/31 14/37/31 8/11/31
f 13/10/32 22/9/32 15/12/32
f 7/13/33 15/12/33 23/14/33
f 8/11/34 17/31/34 23/14/34
f 23/14/35 17/31/35 6/16/35
f 16/15/36 23/14/36 18/17/36
f 5/18/37 18/17/37 24/19/37
f 18/17/38 6/16/38 20/21/38
f 20/21/39 2/38/39 10/22/39
f 19/20/40 24/19/40 10/22/40
f 13/24/41 25/27/41 9/25/41
f 7/13/42 16/15/42 25/27/42
f 25/27/43 16/15/43 5/18/43
f 25/27/44 19/28/44 1/29/44
f 14/30/45 26/33/45 17/31/45
f 4/32/46 11/39/46 26/33/46
f 26/33/47 11/39/47 2/34/47
f 17/31/48 26/33/48 20/35/48
