# Blender v2.93.8 OBJ File: 'Table1.blend'
# www.blender.org
mtllib Table1.mtl
o Table1_Cube.006
v -0.750217 -0.332419 0.749617
v -0.750217 -0.314835 0.767200
v -0.767801 -0.314835 0.749617
v -0.750217 0.199270 0.767200
v -0.750217 0.216854 0.749617
v -0.767801 0.199270 0.749617
v -0.750217 -0.332419 0.597864
v -0.767801 -0.314835 0.597864
v -0.750217 -0.314835 0.580280
v -0.750217 0.216854 0.597864
v -0.750217 0.199270 0.580280
v -0.767801 0.199270 0.597864
v -0.598464 -0.332419 0.749617
v -0.580881 -0.314835 0.749617
v -0.598464 -0.314835 0.767200
v -0.598464 0.216854 0.749617
v -0.598464 0.199270 0.767200
v -0.580881 0.199270 0.749617
v -0.598464 -0.332419 0.597864
v -0.598464 -0.314835 0.580280
v -0.580881 -0.314835 0.597864
v -0.598464 0.216854 0.597864
v -0.580881 0.199270 0.597864
v -0.598464 0.199270 0.580280
v 0.750217 -0.332419 0.749617
v 0.750217 -0.314835 0.767200
v 0.767801 -0.314835 0.749617
v 0.750217 0.199270 0.767200
v 0.750217 0.216854 0.749617
v 0.767801 0.199270 0.749617
v 0.750217 -0.332419 0.597864
v 0.767801 -0.314835 0.597864
v 0.750217 -0.314835 0.580280
v 0.750217 0.216854 0.597864
v 0.750217 0.199270 0.580280
v 0.767801 0.199270 0.597864
v 0.598464 -0.332419 0.749617
v 0.580881 -0.314835 0.749617
v 0.598464 -0.314835 0.767200
v 0.598464 0.216854 0.749617
v 0.598464 0.199270 0.767200
v 0.580881 0.199270 0.749617
v 0.598464 -0.332419 0.597864
v 0.598464 -0.314835 0.580280
v 0.580881 -0.314835 0.597864
v 0.598464 0.216854 0.597864
v 0.580881 0.199270 0.597864
v 0.598464 0.199270 0.580280
v -0.750217 -0.332419 -0.749617
v -0.750217 -0.314835 -0.767200
v -0.767801 -0.314835 -0.749617
v -0.750217 0.199270 -0.767200
v -0.750217 0.216854 -0.749617
v -0.767801 0.199270 -0.749617
v -0.750217 -0.332419 -0.597864
v -0.767801 -0.314835 -0.597864
v -0.750217 -0.314835 -0.580280
v -0.750217 0.216854 -0.597864
v -0.750217 0.199270 -0.580280
v -0.767801 0.199270 -0.597864
v -0.598464 -0.332419 -0.749617
v -0.580881 -0.314835 -0.749617
v -0.598464 -0.314835 -0.767200
v -0.598464 0.216854 -0.749617
v -0.598464 0.199270 -0.767200
v -0.580881 0.199270 -0.749617
v -0.598464 -0.332419 -0.597864
v -0.598464 -0.314835 -0.580280
v -0.580881 -0.314835 -0.597864
v -0.598464 0.216854 -0.597864
v -0.580881 0.199270 -0.597864
v -0.598464 0.199270 -0.580280
v 0.750217 -0.332419 -0.749617
v 0.750217 -0.314835 -0.767200
v 0.767801 -0.314835 -0.749617
v 0.750217 0.199270 -0.767200
v 0.750217 0.216854 -0.749617
v 0.767801 0.199270 -0.749617
v 0.750217 -0.332419 -0.597864
v 0.767801 -0.314835 -0.597864
v 0.750217 -0.314835 -0.580280
v 0.750217 0.216854 -0.597864
v 0.750217 0.199270 -0.580280
v 0.767801 0.199270 -0.597864
v 0.598464 -0.332419 -0.749617
v 0.580881 -0.314835 -0.749617
v 0.598464 -0.314835 -0.767200
v 0.598464 0.216854 -0.749617
v 0.598464 0.199270 -0.767200
v 0.580881 0.199270 -0.749617
v 0.598464 -0.332419 -0.597864
v 0.598464 -0.314835 -0.580280
v 0.580881 -0.314835 -0.597864
v 0.598464 0.216854 -0.597864
v 0.580881 0.199270 -0.597864
v 0.598464 0.199270 -0.580280
v -0.769213 0.173507 0.769214
v -0.769213 0.196691 0.792397
v -0.792397 0.196691 0.769214
v -0.769213 0.265568 0.792397
v -0.769213 0.288752 0.769214
v -0.792397 0.265568 0.769214
v -0.769213 0.173507 -0.769214
v -0.792397 0.196691 -0.769214
v -0.769213 0.196691 -0.792397
v -0.769213 0.288752 -0.769214
v -0.769213 0.265568 -0.792397
v -0.792397 0.265568 -0.769214
v 0.769214 0.173507 0.769214
v 0.792397 0.196691 0.769214
v 0.769214 0.196691 0.792397
v 0.769214 0.288752 0.769214
v 0.769214 0.265568 0.792397
v 0.792397 0.265568 0.769214
v 0.769214 0.173507 -0.769214
v 0.769214 0.196691 -0.792397
v 0.792397 0.196691 -0.769214
v 0.769214 0.288752 -0.769214
v 0.792397 0.265568 -0.769214
v 0.769214 0.265568 -0.792397
vt 0.616997 0.773517
vt 0.383003 0.976483
vt 0.383003 0.773517
vt 0.616997 0.523517
vt 0.383003 0.726483
vt 0.383003 0.523517
vt 0.851483 0.523517
vt 0.648517 0.726483
vt 0.648517 0.523517
vt 0.616997 0.023517
vt 0.383003 0.226483
vt 0.383003 0.023517
vt 0.616997 0.273517
vt 0.383003 0.476483
vt 0.383003 0.273517
vt 0.148517 0.726483
vt 0.148517 0.750000
vt 0.125000 0.726483
vt 0.616997 0.976483
vt 0.625000 0.976483
vt 0.616997 1.000000
vt 0.148517 0.523517
vt 0.125000 0.523517
vt 0.148517 0.500000
vt 0.625000 0.273517
vt 0.625000 0.273517
vt 0.616997 0.250000
vt 0.351483 0.726483
vt 0.375000 0.726483
vt 0.351483 0.750000
vt 0.625000 0.773517
vt 0.625000 0.773517
vt 0.616997 0.750000
vt 0.351483 0.523517
vt 0.351483 0.500000
vt 0.375000 0.523517
vt 0.625000 0.523517
vt 0.625000 0.523517
vt 0.616997 0.500000
vt 0.616997 0.000000
vt 0.383003 0.000000
vt 0.625000 0.226483
vt 0.625000 0.023517
vt 0.616997 0.226483
vt 0.625000 0.476483
vt 0.616997 0.476483
vt 0.616997 0.726483
vt 0.383003 0.976483
vt 0.616997 0.773517
vt 0.383003 0.773517
vt 0.383003 0.726483
vt 0.616997 0.523517
vt 0.383003 0.523517
vt 0.648517 0.726483
vt 0.851483 0.523517
vt 0.648517 0.523517
vt 0.383003 0.226483
vt 0.616997 0.023517
vt 0.383003 0.023517
vt 0.383003 0.476483
vt 0.616997 0.273517
vt 0.383003 0.273517
vt 0.148517 0.726483
vt 0.125000 0.726483
vt 0.148517 0.750000
vt 0.616997 0.976483
vt 0.616997 1.000000
vt 0.625000 0.976483
vt 0.148517 0.523517
vt 0.148517 0.500000
vt 0.125000 0.523517
vt 0.625000 0.273517
vt 0.616997 0.250000
vt 0.625000 0.273517
vt 0.351483 0.726483
vt 0.351483 0.750000
vt 0.375000 0.726483
vt 0.625000 0.773517
vt 0.616997 0.750000
vt 0.625000 0.773517
vt 0.351483 0.523517
vt 0.375000 0.523517
vt 0.351483 0.500000
vt 0.625000 0.523517
vt 0.616997 0.500000
vt 0.625000 0.523517
vt 0.616997 0.000000
vt 0.383003 0.000000
vt 0.625000 0.226483
vt 0.625000 0.023517
vt 0.616997 0.226483
vt 0.625000 0.476483
vt 0.616997 0.476483
vt 0.616997 0.726483
vt 0.383003 0.976483
vt 0.616997 0.773517
vt 0.383003 0.773517
vt 0.383003 0.726483
vt 0.616997 0.523517
vt 0.383003 0.523517
vt 0.648517 0.726483
vt 0.851483 0.523517
vt 0.648517 0.523517
vt 0.383003 0.226483
vt 0.616997 0.023517
vt 0.383003 0.023517
vt 0.383003 0.476483
vt 0.616997 0.273517
vt 0.383003 0.273517
vt 0.148517 0.726483
vt 0.125000 0.726483
vt 0.148517 0.750000
vt 0.616997 0.976483
vt 0.616997 1.000000
vt 0.625000 0.976483
vt 0.148517 0.523517
vt 0.148517 0.500000
vt 0.125000 0.523517
vt 0.625000 0.273517
vt 0.616997 0.250000
vt 0.625000 0.273517
vt 0.351483 0.726483
vt 0.351483 0.750000
vt 0.375000 0.726483
vt 0.625000 0.773517
vt 0.616997 0.750000
vt 0.625000 0.773517
vt 0.351483 0.523517
vt 0.375000 0.523517
vt 0.351483 0.500000
vt 0.625000 0.523517
vt 0.616997 0.500000
vt 0.625000 0.523517
vt 0.616997 0.000000
vt 0.383003 0.000000
vt 0.625000 0.226483
vt 0.625000 0.023517
vt 0.616997 0.226483
vt 0.625000 0.476483
vt 0.616997 0.476483
vt 0.616997 0.726483
vt 0.616997 0.773517
vt 0.383003 0.976483
vt 0.383003 0.773517
vt 0.616997 0.523517
vt 0.383003 0.726483
vt 0.383003 0.523517
vt 0.851483 0.523517
vt 0.648517 0.726483
vt 0.648517 0.523517
vt 0.616997 0.023517
vt 0.383003 0.226483
vt 0.383003 0.023517
vt 0.616997 0.273517
vt 0.383003 0.476483
vt 0.383003 0.273517
vt 0.148517 0.726483
vt 0.148517 0.750000
vt 0.125000 0.726483
vt 0.616997 0.976483
vt 0.625000 0.976483
vt 0.616997 1.000000
vt 0.148517 0.523517
vt 0.125000 0.523517
vt 0.148517 0.500000
vt 0.625000 0.273517
vt 0.625000 0.273517
vt 0.616997 0.250000
vt 0.351483 0.726483
vt 0.375000 0.726483
vt 0.351483 0.750000
vt 0.625000 0.773517
vt 0.625000 0.773517
vt 0.616997 0.750000
vt 0.351483 0.523517
vt 0.351483 0.500000
vt 0.375000 0.523517
vt 0.625000 0.523517
vt 0.625000 0.523517
vt 0.616997 0.500000
vt 0.616997 0.000000
vt 0.383003 0.000000
vt 0.625000 0.226483
vt 0.625000 0.023517
vt 0.616997 0.226483
vt 0.625000 0.476483
vt 0.616997 0.476483
vt 0.616997 0.726483
vt 0.574708 0.753657
vt 0.425292 0.996343
vt 0.425292 0.753657
vt 0.574708 0.503657
vt 0.425292 0.746343
vt 0.425292 0.503657
vt 0.871343 0.503657
vt 0.628657 0.746343
vt 0.628657 0.503657
vt 0.574708 0.003657
vt 0.425292 0.246343
vt 0.425292 0.003657
vt 0.574708 0.253657
vt 0.425292 0.496343
vt 0.425292 0.253657
vt 0.128657 0.746343
vt 0.128657 0.750000
vt 0.125000 0.746343
vt 0.574708 0.996343
vt 0.625000 0.996343
vt 0.574708 1.000000
vt 0.128657 0.503657
vt 0.125000 0.503657
vt 0.128657 0.500000
vt 0.625000 0.253657
vt 0.625000 0.253657
vt 0.574708 0.250000
vt 0.371343 0.746343
vt 0.375000 0.746343
vt 0.371343 0.750000
vt 0.625000 0.753657
vt 0.625000 0.753657
vt 0.574708 0.750000
vt 0.371343 0.503657
vt 0.371343 0.500000
vt 0.375000 0.503657
vt 0.625000 0.503657
vt 0.625000 0.503657
vt 0.574708 0.500000
vt 0.574708 0.000000
vt 0.425292 0.000000
vt 0.625000 0.246343
vt 0.625000 0.003657
vt 0.574708 0.246343
vt 0.625000 0.496343
vt 0.574708 0.496343
vt 0.574708 0.746343
vt 0.851483 0.726483
vt 0.851483 0.726483
vt 0.851483 0.726483
vt 0.851483 0.726483
vt 0.871343 0.746343
vn 0.0000 0.0000 1.0000
vn 1.0000 0.0000 0.0000
vn 0.0000 1.0000 0.0000
vn -1.0000 0.0000 0.0000
vn 0.0000 0.0000 -1.0000
vn -0.5774 -0.5773 0.5774
vn -0.5774 0.5773 0.5774
vn -0.5774 -0.5773 -0.5774
vn -0.5774 0.5773 -0.5774
vn 0.5773 -0.5773 0.5774
vn 0.5773 0.5773 0.5774
vn 0.5774 -0.5773 -0.5774
vn 0.5774 0.5773 -0.5773
vn -0.7071 -0.7071 0.0000
vn -0.7071 0.0000 0.7071
vn -0.7071 0.7071 0.0000
vn -0.7071 0.0000 -0.7071
vn 0.0000 -0.7071 -0.7071
vn 0.0000 0.7071 -0.7071
vn 0.7071 0.0000 -0.7071
vn 0.7071 -0.7071 0.0000
vn 0.7071 0.7071 0.0000
vn 0.7071 0.0000 0.7071
vn 0.0000 -0.7071 0.7071
vn 0.0000 0.7071 0.7071
vn 0.0000 -1.0000 0.0000
vn 0.5773 -0.5774 0.5774
vn 0.5773 0.5774 0.5774
vn 0.5774 -0.5774 -0.5774
vn 0.5774 0.5774 -0.5773
vn -0.5773 -0.5773 0.5774
vn -0.5773 0.5773 0.5774
vn -0.5774 0.5773 -0.5773
vn -0.5773 -0.5773 -0.5774
vn -0.5773 0.5773 -0.5774
vn -0.5774 0.5773 0.5773
vn 0.5773 -0.5774 -0.5774
vn 0.5773 0.5774 -0.5774
vn 0.5774 -0.5773 0.5774
vn 0.5774 0.5773 0.5773
vn 0.5774 -0.5774 0.5774
vn 0.5774 0.5774 0.5773
vn -0.5774 -0.5774 0.5773
vn -0.5774 0.5774 0.5773
vn -0.5774 -0.5774 -0.5773
vn -0.5774 0.5774 -0.5773
vn 0.5773 -0.5774 0.5773
vn 0.5773 0.5774 0.5773
vn 0.5773 -0.5774 -0.5773
vn 0.5773 0.5774 -0.5773
usemtl Table1
s off
f 17/1/1 2/2/1 15/3/1
f 23/4/2 14/5/2 21/6/2
f 10/7/3 16/8/3 22/9/3
f 6/10/4 8/11/4 3/12/4
f 11/13/5 20/14/5 9/15/5
f 1/16/6 2/17/6 3/18/6
f 4/19/7 5/20/7 6/21/7
f 7/22/8 8/23/8 9/24/8
f 10/25/9 11/26/9 12/27/9
f 13/28/10 14/29/10 15/30/10
f 16/31/11 17/32/11 18/33/11
f 19/34/12 20/35/12 21/36/12
f 22/37/13 23/38/13 24/39/13
f 1/16/14 8/23/14 7/22/14
f 4/40/15 3/12/15 2/41/15
f 10/42/16 6/10/16 5/43/16
f 9/15/17 12/44/17 11/13/17
f 7/22/18 20/35/18 19/34/18
f 22/45/19 11/13/19 10/25/19
f 21/6/20 24/46/20 23/4/20
f 19/34/21 14/5/21 13/28/21
f 16/8/22 23/4/22 22/9/22
f 15/3/23 18/47/23 17/1/23
f 13/28/24 2/17/24 1/16/24
f 5/20/25 17/1/25 16/31/25
f 19/34/26 1/16/26 7/22/26
f 26/48/1 41/49/1 39/50/1
f 38/51/4 47/52/4 45/53/4
f 40/54/3 34/55/3 46/56/3
f 32/57/2 30/58/2 27/59/2
f 44/60/5 35/61/5 33/62/5
f 25/63/27 27/64/27 26/65/27
f 28/66/28 30/67/28 29/68/28
f 31/69/29 33/70/29 32/71/29
f 34/72/30 36/73/30 35/74/30
f 37/75/31 39/76/31 38/77/31
f 40/78/32 42/79/32 41/80/32
f 43/81/8 45/82/8 44/83/8
f 46/84/33 48/85/33 47/86/33
f 32/71/21 25/63/21 31/69/21
f 27/59/23 28/87/23 26/88/23
f 30/58/22 34/89/22 29/90/22
f 36/91/20 33/62/20 35/61/20
f 44/83/18 31/69/18 43/81/18
f 35/61/19 46/92/19 34/72/19
f 48/93/17 45/53/17 47/52/17
f 38/51/14 43/81/14 37/75/14
f 47/52/16 40/54/16 46/56/16
f 42/94/15 39/50/15 41/49/15
f 26/65/24 37/75/24 25/63/24
f 41/49/25 29/68/25 40/78/25
f 25/63/26 43/81/26 31/69/26
f 50/95/5 65/96/5 63/97/5
f 62/98/2 71/99/2 69/100/2
f 64/101/3 58/102/3 70/103/3
f 56/104/4 54/105/4 51/106/4
f 68/107/1 59/108/1 57/109/1
f 49/110/34 51/111/34 50/112/34
f 52/113/35 54/114/35 53/115/35
f 55/116/6 57/117/6 56/118/6
f 58/119/36 60/120/36 59/121/36
f 61/122/37 63/123/37 62/124/37
f 64/125/38 66/126/38 65/127/38
f 67/128/39 69/129/39 68/130/39
f 70/131/40 72/132/40 71/133/40
f 56/118/14 49/110/14 55/116/14
f 51/106/17 52/134/17 50/135/17
f 54/105/16 58/136/16 53/137/16
f 60/138/15 57/109/15 59/108/15
f 68/130/24 55/116/24 67/128/24
f 59/108/25 70/139/25 58/119/25
f 72/140/23 69/100/23 71/99/23
f 62/98/21 67/128/21 61/122/21
f 71/99/22 64/101/22 70/103/22
f 66/141/20 63/97/20 65/96/20
f 50/112/18 61/122/18 49/110/18
f 65/96/19 53/115/19 64/125/19
f 49/110/26 67/128/26 55/116/26
f 89/142/5 74/143/5 87/144/5
f 95/145/4 86/146/4 93/147/4
f 82/148/3 88/149/3 94/150/3
f 78/151/2 80/152/2 75/153/2
f 83/154/1 92/155/1 81/156/1
f 73/157/37 74/158/37 75/159/37
f 76/160/38 77/161/38 78/162/38
f 79/163/41 80/164/41 81/165/41
f 82/166/42 83/167/42 84/168/42
f 85/169/34 86/170/34 87/171/34
f 88/172/35 89/173/35 90/174/35
f 91/175/6 92/176/6 93/177/6
f 94/178/36 95/179/36 96/180/36
f 73/157/21 80/164/21 79/163/21
f 76/181/20 75/153/20 74/182/20
f 82/183/22 78/151/22 77/184/22
f 81/156/23 84/185/23 83/154/23
f 79/163/24 92/176/24 91/175/24
f 94/186/25 83/154/25 82/166/25
f 93/147/15 96/187/15 95/145/15
f 91/175/14 86/146/14 85/169/14
f 88/149/16 95/145/16 94/150/16
f 87/144/17 90/188/17 89/142/17
f 85/169/18 74/158/18 73/157/18
f 77/161/19 89/142/19 88/172/19
f 91/175/26 73/157/26 79/163/26
f 113/189/1 98/190/1 111/191/1
f 119/192/2 110/193/2 117/194/2
f 106/195/3 112/196/3 118/197/3
f 102/198/4 104/199/4 99/200/4
f 107/201/5 116/202/5 105/203/5
f 97/204/43 98/205/43 99/206/43
f 100/207/44 101/208/44 102/209/44
f 103/210/45 104/211/45 105/212/45
f 106/213/46 107/214/46 108/215/46
f 109/216/47 110/217/47 111/218/47
f 112/219/48 113/220/48 114/221/48
f 115/222/49 116/223/49 117/224/49
f 118/225/50 119/226/50 120/227/50
f 97/204/14 104/211/14 103/210/14
f 100/228/15 99/200/15 98/229/15
f 106/230/16 102/198/16 101/231/16
f 105/203/17 108/232/17 107/201/17
f 103/210/18 116/223/18 115/222/18
f 118/233/19 107/201/19 106/213/19
f 117/194/20 120/234/20 119/192/20
f 115/222/21 110/193/21 109/216/21
f 112/196/22 119/192/22 118/197/22
f 111/191/23 114/235/23 113/189/23
f 109/216/24 98/205/24 97/204/24
f 101/208/25 113/189/25 112/219/25
f 115/222/26 97/204/26 103/210/26
f 17/1/1 4/19/1 2/2/1
f 23/4/2 18/47/2 14/5/2
f 10/7/3 5/236/3 16/8/3
f 6/10/4 12/44/4 8/11/4
f 11/13/5 24/46/5 20/14/5
f 1/16/14 3/18/14 8/23/14
f 4/40/15 6/10/15 3/12/15
f 10/42/16 12/44/16 6/10/16
f 9/15/17 8/11/17 12/44/17
f 7/22/18 9/24/18 20/35/18
f 22/45/19 24/46/19 11/13/19
f 21/6/20 20/14/20 24/46/20
f 19/34/21 21/6/21 14/5/21
f 16/8/22 18/47/22 23/4/22
f 15/3/23 14/5/23 18/47/23
f 13/28/24 15/30/24 2/17/24
f 5/20/25 4/19/25 17/1/25
f 19/34/26 13/28/26 1/16/26
f 26/48/1 28/66/1 41/49/1
f 38/51/4 42/94/4 47/52/4
f 40/54/3 29/237/3 34/55/3
f 32/57/2 36/91/2 30/58/2
f 44/60/5 48/93/5 35/61/5
f 32/71/21 27/64/21 25/63/21
f 27/59/23 30/58/23 28/87/23
f 30/58/22 36/91/22 34/89/22
f 36/91/20 32/57/20 33/62/20
f 44/83/18 33/70/18 31/69/18
f 35/61/19 48/93/19 46/92/19
f 48/93/17 44/60/17 45/53/17
f 38/51/14 45/53/14 43/81/14
f 47/52/16 42/94/16 40/54/16
f 42/94/15 38/51/15 39/50/15
f 26/65/24 39/76/24 37/75/24
f 41/49/25 28/66/25 29/68/25
f 25/63/26 37/75/26 43/81/26
f 50/95/5 52/113/5 65/96/5
f 62/98/2 66/141/2 71/99/2
f 64/101/3 53/238/3 58/102/3
f 56/104/4 60/138/4 54/105/4
f 68/107/1 72/140/1 59/108/1
f 56/118/14 51/111/14 49/110/14
f 51/106/17 54/105/17 52/134/17
f 54/105/16 60/138/16 58/136/16
f 60/138/15 56/104/15 57/109/15
f 68/130/24 57/117/24 55/116/24
f 59/108/25 72/140/25 70/139/25
f 72/140/23 68/107/23 69/100/23
f 62/98/21 69/100/21 67/128/21
f 71/99/22 66/141/22 64/101/22
f 66/141/20 62/98/20 63/97/20
f 50/112/18 63/123/18 61/122/18
f 65/96/19 52/113/19 53/115/19
f 49/110/26 61/122/26 67/128/26
f 89/142/5 76/160/5 74/143/5
f 95/145/4 90/188/4 86/146/4
f 82/148/3 77/239/3 88/149/3
f 78/151/2 84/185/2 80/152/2
f 83/154/1 96/187/1 92/155/1
f 73/157/21 75/159/21 80/164/21
f 76/181/20 78/151/20 75/153/20
f 82/183/22 84/185/22 78/151/22
f 81/156/23 80/152/23 84/185/23
f 79/163/24 81/165/24 92/176/24
f 94/186/25 96/187/25 83/154/25
f 93/147/15 92/155/15 96/187/15
f 91/175/14 93/147/14 86/146/14
f 88/149/16 90/188/16 95/145/16
f 87/144/17 86/146/17 90/188/17
f 85/169/18 87/171/18 74/158/18
f 77/161/19 76/160/19 89/142/19
f 91/175/26 85/169/26 73/157/26
f 113/189/1 100/207/1 98/190/1
f 119/192/2 114/235/2 110/193/2
f 106/195/3 101/240/3 112/196/3
f 102/198/4 108/232/4 104/199/4
f 107/201/5 120/234/5 116/202/5
f 97/204/14 99/206/14 104/211/14
f 100/228/15 102/198/15 99/200/15
f 106/230/16 108/232/16 102/198/16
f 105/203/17 104/199/17 108/232/17
f 103/210/18 105/212/18 116/223/18
f 118/233/19 120/234/19 107/201/19
f 117/194/20 116/202/20 120/234/20
f 115/222/21 117/194/21 110/193/21
f 112/196/22 114/235/22 119/192/22
f 111/191/23 110/193/23 114/235/23
f 109/216/24 111/218/24 98/205/24
f 101/208/25 100/207/25 113/189/25
f 115/222/26 109/216/26 97/204/26
